<svg width="145" height="101" viewBox="0 0 145 101" fill="none" xmlns="http://www.w3.org/2000/svg">
<path d="M103.781 100.5H87.3958L39.7304 22.7457L34.9639 13.8084C40.922 5.16924 48.9656 0.70041 68.3297 0.70041H87.3958C103.781 -0.789647 144.892 5.16904 144.892 48.0679C144.892 87.941 109.739 90.9668 103.781 90.9668V100.5Z" fill="#5F7AFB"/>
<path fill-rule="evenodd" clip-rule="evenodd" d="M52.5404 13.8081H34.9637L0.108398 100.5H19.1746L25.7286 83.8167H61.4776L68.3295 100.5H87.3957L52.5404 13.8081ZM43.3041 35.8534L31.0898 68.9213H55.8163L43.3041 35.8534Z" fill="#EB5757"/>
<path fill-rule="evenodd" clip-rule="evenodd" d="M52.541 13.8084C52.541 13.8084 58.4992 11.1272 68.3302 12.021V0.700439H87.3964V12.021C105.867 9.6377 131.785 22.4478 131.785 46.5784C131.785 70.709 113.314 83.817 87.3964 83.817V100.5L80.5444 83.817H61.4783L55.818 68.9216H74.6769L68.331 53.1218V26.3205C68.331 26.3205 65.4764 26.0572 62.6707 26.6184C59.865 27.1796 58.5 28.4056 58.5 28.4056L62.7958 39.3405L52.541 13.8084ZM62.7958 39.3405L68.331 53.4302V53.1218L62.7958 39.3405ZM87.3965 69.2191V26.3202C87.3965 26.3202 110.336 24.8308 110.336 47.4719C110.336 70.113 87.3965 69.2191 87.3965 69.2191Z" fill="white"/>
</svg>
