<svg xmlns="http://www.w3.org/2000/svg" viewBox="0 0 211.93 154.66">
  <defs>
    <style>
      .cls-1 {
        fill: #fff;
      }
    </style>
  </defs>
  <g id="Слой_2" data-name="Слой 2">
    <g id="Layer_1" data-name="Layer 1">
      <g>
        <g>
          <path class="cls-1" d="M60.79,152.8A7.41,7.41,0,0,1,58,150a8.17,8.17,0,0,1,0-7.94,7.41,7.41,0,0,1,2.84-2.77,8.15,8.15,0,0,1,4-1,8.62,8.62,0,0,1,3.06.53,6.37,6.37,0,0,1,2.37,1.58l-.7.72a6.4,6.4,0,0,0-4.68-1.81,7,7,0,0,0-3.49.88,6.36,6.36,0,0,0-2.47,2.41,7.07,7.07,0,0,0,0,6.87,6.4,6.4,0,0,0,2.47,2.4,7,7,0,0,0,3.49.88,6.34,6.34,0,0,0,4.68-1.84l.7.73a6.51,6.51,0,0,1-2.39,1.59,8.38,8.38,0,0,1-3,.54A8.15,8.15,0,0,1,60.79,152.8Z"/>
          <path class="cls-1" d="M82.72,138.43h1.11v14.26h8.79v1h-9.9Z"/>
          <path class="cls-1" d="M104.2,138.43h1.11v15.26H104.2Z"/>
          <path class="cls-1" d="M131.78,138.43v15.26h-.91l-10.41-13.26v13.26h-1.11V138.43h.94l10.38,13.26V138.43Z"/>
          <path class="cls-1" d="M145.83,138.43h1.11v15.26h-1.11Z"/>
          <path class="cls-1" d="M163.39,152.8a7.38,7.38,0,0,1-2.83-2.77,8.1,8.1,0,0,1,0-7.94,7.38,7.38,0,0,1,2.83-2.77,8.16,8.16,0,0,1,4.05-1,8.61,8.61,0,0,1,3.05.53,6.49,6.49,0,0,1,2.38,1.58l-.7.72a6.41,6.41,0,0,0-4.69-1.81,7,7,0,0,0-3.49.88,6.4,6.4,0,0,0-2.46,2.41,7,7,0,0,0,0,6.87,6.44,6.44,0,0,0,2.46,2.4,7,7,0,0,0,3.49.88,6.36,6.36,0,0,0,4.69-1.84l.7.73a6.59,6.59,0,0,1-2.39,1.59,8.42,8.42,0,0,1-3,.54A8.16,8.16,0,0,1,163.39,152.8Z"/>
        </g>
        <g>
          <path class="cls-1" d="M58.05,87.86h5.07a7.27,7.27,0,0,1,3.29.72,5.34,5.34,0,0,1,2.24,2,5.77,5.77,0,0,1,.79,3,5.7,5.7,0,0,1-.79,3,5.34,5.34,0,0,1-2.24,2,7.27,7.27,0,0,1-3.29.72H58.05Zm5,9.77a4.83,4.83,0,0,0,2.24-.49,3.46,3.46,0,0,0,1.49-1.39,4.48,4.48,0,0,0,0-4.19,3.52,3.52,0,0,0-1.49-1.39A5,5,0,0,0,63,89.68H60.2v7.95Z"/>
          <path class="cls-1" d="M76.43,98.85a5.77,5.77,0,0,1-2.24-2.14,6.17,6.17,0,0,1,0-6.11,5.67,5.67,0,0,1,2.24-2.13,7,7,0,0,1,6.39,0,5.69,5.69,0,0,1,2.23,2.12,6.2,6.2,0,0,1,0,6.13,5.71,5.71,0,0,1-2.23,2.13,7,7,0,0,1-6.39,0Zm5.28-1.64a3.7,3.7,0,0,0,1.45-1.46,4.41,4.41,0,0,0,0-4.19,3.68,3.68,0,0,0-1.45-1.45,4.18,4.18,0,0,0-2.09-.52,4.12,4.12,0,0,0-2.08.52,3.7,3.7,0,0,0-1.46,1.45,4.41,4.41,0,0,0,0,4.19,3.73,3.73,0,0,0,1.46,1.46,4.12,4.12,0,0,0,2.08.52A4.18,4.18,0,0,0,81.71,97.21Z"/>
          <path class="cls-1" d="M92.82,98.85a5.76,5.76,0,0,1-2.22-2.13,6,6,0,0,1-.8-3.06,5.89,5.89,0,0,1,.81-3.07,5.76,5.76,0,0,1,2.23-2.12A6.44,6.44,0,0,1,96,87.7a6.65,6.65,0,0,1,2.6.49,5.5,5.5,0,0,1,2,1.44L99.2,90.94a4,4,0,0,0-3.09-1.35,4.32,4.32,0,0,0-2.14.52,3.66,3.66,0,0,0-1.47,1.45,4.15,4.15,0,0,0-.53,2.1,4.2,4.2,0,0,0,.53,2.1A3.73,3.73,0,0,0,94,97.21a4.32,4.32,0,0,0,2.14.52,4,4,0,0,0,3.09-1.37l1.39,1.32a5.24,5.24,0,0,1-2,1.44,6.71,6.71,0,0,1-2.61.5A6.58,6.58,0,0,1,92.82,98.85Z"/>
          <path class="cls-1" d="M107.37,89.68h-3.85V87.86h9.84v1.82h-3.84v9.77h-2.15Z"/>
          <path class="cls-1" d="M119.52,98.85a5.77,5.77,0,0,1-2.24-2.14,6.17,6.17,0,0,1,0-6.11,5.67,5.67,0,0,1,2.24-2.13,6.49,6.49,0,0,1,3.19-.77,6.56,6.56,0,0,1,3.2.77,5.76,5.76,0,0,1,2.23,2.12,6.2,6.2,0,0,1,0,6.13,5.78,5.78,0,0,1-2.23,2.13,6.67,6.67,0,0,1-3.2.77A6.6,6.6,0,0,1,119.52,98.85Zm5.28-1.64a3.77,3.77,0,0,0,1.45-1.46,4.41,4.41,0,0,0,0-4.19,3.74,3.74,0,0,0-1.45-1.45,4.46,4.46,0,0,0-4.18,0,3.74,3.74,0,0,0-1.45,1.45,4.41,4.41,0,0,0,0,4.19,3.77,3.77,0,0,0,1.45,1.46,4.46,4.46,0,0,0,4.18,0Z"/>
          <path class="cls-1" d="M141.3,99.45l-2.37-3.39h-3.06v3.38h-2.15V87.86h4.77a6.41,6.41,0,0,1,2.62.5,3.78,3.78,0,0,1,1.71,1.42,4,4,0,0,1,.6,2.21,3.89,3.89,0,0,1-.64,2.25,3.74,3.74,0,0,1-1.83,1.4l2.67,3.81Zm-.78-9.17a3.28,3.28,0,0,0-2.13-.6h-2.52V94.3h2.52a3.28,3.28,0,0,0,2.13-.6,2.37,2.37,0,0,0,0-3.42Z"/>
        </g>
        <g>
          <path class="cls-1" d="M65.44,110.91a3.8,3.8,0,0,1,1.72,1.42,4.38,4.38,0,0,1,0,4.39,3.83,3.83,0,0,1-1.72,1.44,6.41,6.41,0,0,1-2.62.49H60.2V122H58.05V110.41h4.77A6.25,6.25,0,0,1,65.44,110.91Zm-.58,5.33a2.1,2.1,0,0,0,.72-1.71,2.07,2.07,0,0,0-.72-1.7,3.31,3.31,0,0,0-2.14-.6H60.2v4.6h2.52A3.37,3.37,0,0,0,64.86,116.24Z"/>
          <path class="cls-1" d="M74.77,121.39a5.64,5.64,0,0,1-2.23-2.13,6.17,6.17,0,0,1,0-6.11A5.74,5.74,0,0,1,74.77,111a7,7,0,0,1,6.39,0,6,6,0,0,1,2.24,8.25,5.74,5.74,0,0,1-2.24,2.13,7,7,0,0,1-6.39,0Zm5.28-1.64a3.7,3.7,0,0,0,1.46-1.45,4.25,4.25,0,0,0,.53-2.1,4.19,4.19,0,0,0-.53-2.09,3.79,3.79,0,0,0-1.46-1.46,4.44,4.44,0,0,0-4.17,0,3.86,3.86,0,0,0-1.46,1.46,4.19,4.19,0,0,0-.53,2.09,4.25,4.25,0,0,0,.53,2.1,3.77,3.77,0,0,0,1.46,1.45,4.37,4.37,0,0,0,4.17,0Z"/>
          <path class="cls-1" d="M96.37,110.91a3.82,3.82,0,0,1,1.71,1.42,4.38,4.38,0,0,1,0,4.39,3.86,3.86,0,0,1-1.71,1.44,6.46,6.46,0,0,1-2.63.49H91.13V122H89V110.41h4.77A6.3,6.3,0,0,1,96.37,110.91Zm-.59,5.33a2.11,2.11,0,0,0,.73-1.71,2.07,2.07,0,0,0-.73-1.7,3.31,3.31,0,0,0-2.14-.6H91.13v4.6h2.51A3.37,3.37,0,0,0,95.78,116.24Z"/>
          <path class="cls-1" d="M105.69,121.39a5.64,5.64,0,0,1-2.23-2.13,6.17,6.17,0,0,1,0-6.11,5.74,5.74,0,0,1,2.23-2.14,7,7,0,0,1,6.39,0,6,6,0,0,1,2.24,8.25,5.67,5.67,0,0,1-2.24,2.13,7,7,0,0,1-6.39,0Zm5.28-1.64a3.7,3.7,0,0,0,1.46-1.45,4.25,4.25,0,0,0,.53-2.1,4.19,4.19,0,0,0-.53-2.09,3.79,3.79,0,0,0-1.46-1.46,4.12,4.12,0,0,0-2.08-.52,4.18,4.18,0,0,0-2.09.52,3.77,3.77,0,0,0-1.45,1.46,4.09,4.09,0,0,0-.53,2.09,4.15,4.15,0,0,0,.53,2.1,3.68,3.68,0,0,0,1.45,1.45,4.19,4.19,0,0,0,2.09.53A4.12,4.12,0,0,0,111,119.75Z"/>
          <path class="cls-1" d="M130.13,110.41l-5,11.59H123l-5.07-11.59h2.34l3.86,8.94,3.89-8.94Z"/>
          <path class="cls-1" d="M135.91,121.39a5.68,5.68,0,0,1-2.22-2.13,5.92,5.92,0,0,1-.8-3.06,5.76,5.76,0,0,1,3-5.19,6.55,6.55,0,0,1,3.17-.77,6.66,6.66,0,0,1,2.6.5,5.28,5.28,0,0,1,2,1.44l-1.39,1.31a4,4,0,0,0-3.09-1.36,4.32,4.32,0,0,0-2.14.52,3.73,3.73,0,0,0-1.47,1.45,4.45,4.45,0,0,0,0,4.21,3.7,3.7,0,0,0,1.47,1.44,4.33,4.33,0,0,0,2.14.53,4,4,0,0,0,3.09-1.38l1.39,1.32a5.37,5.37,0,0,1-2,1.45,6.7,6.7,0,0,1-2.61.49A6.47,6.47,0,0,1,135.91,121.39Z"/>
          <path class="cls-1" d="M156.93,120.19V122h-8.69V110.41h8.46v1.8h-6.31v3H156V117h-5.59v3.19Z"/>
          <path class="cls-1" d="M172.24,110.41,167.19,122h-2.12L160,110.41h2.33l3.86,8.94,3.89-8.94Z"/>
        </g>
        <polygon class="cls-1" points="211.93 154.66 186.81 154.66 186.81 151.54 208.82 151.54 208.82 3.12 60.39 3.12 60.39 41.39 57.27 41.39 57.27 0 211.93 0 211.93 154.66"/>
        <g>
          <path class="cls-1" d="M151,47.15a1.33,1.33,0,0,0-.35-.49l-.11-.09-.11-.07a.91.91,0,0,0-.22-.11.83.83,0,0,0-.22-.08l-.21-.05-.2,0-.2,0a7.33,7.33,0,0,0-1.49,0l-.36,0-.36.06c-.23,0-.47.07-.7.12a55.33,55.33,0,0,0-5.38,1.49q-5.29,1.66-10.48,3.62c-6.92,2.59-13.69,5.55-20.37,8.69-3.34,1.58-6.65,3.2-10,4.83-1.65.81-3.3,1.63-5,2.43s-3.31,1.6-5,2.31q-.63.27-1.26.51c-.43.15-.85.3-1.27.41-.21.05-.42.1-.62.13a2.62,2.62,0,0,1-.54,0,.52.52,0,0,1-.17,0h0l-.06,0h0s0-.09,0-.17a2.43,2.43,0,0,1,.1-.28,5.46,5.46,0,0,0,.25-.75c0-.08,0-.16,0-.24s0-.09,0-.13a1.29,1.29,0,0,0,0-.26.82.82,0,0,0-.69-.67,1.25,1.25,0,0,0-.38,0,3.23,3.23,0,0,0-.45.09L85,68.5c-.46.17-.89.36-1.32.55l-1.25.58c-.42.18-.83.36-1.25.52a6.81,6.81,0,0,1-1.24.39,1.74,1.74,0,0,1-.53,0l-.1,0h0a0,0,0,0,0,0,0,.57.57,0,0,1,0-.16c0-.08,0-.17,0-.26a3.81,3.81,0,0,1,.19-.57,12.94,12.94,0,0,1,.61-1.16c.23-.39.47-.77.7-1.18a4.18,4.18,0,0,0,.32-.67c0-.07,0-.14.08-.26a.8.8,0,0,0,0-.32c.11-.29-.7-.74-.77-.56s-.17.06-.19.07l-.09,0-.17.07c-.44.19-.86.4-1.28.62a45.59,45.59,0,0,0-4.79,2.91c-.76.52-1.52,1.09-2.24,1.66s-1.45,1.12-2.19,1.66a22.88,22.88,0,0,1-2.27,1.45,7.6,7.6,0,0,1-2.39.93,2.52,2.52,0,0,1-1.13,0,1.73,1.73,0,0,1-.24-.1l-.11-.05-.11-.07-.11-.08L63,74.4c-.07-.06-.13-.14-.2-.21A4.06,4.06,0,0,1,62,72a21.44,21.44,0,0,1-.07-2.68c0-.83,0-1.67,0-2.53l2.39-2.84c1.19-1.4,2.37-2.82,3.55-4.23l1.59-1.9L73,54q3-3.15,6-6.26l7.24-2.58c10-3.55,19.94-7.14,30-10.49,2.51-.84,5-1.64,7.55-2.42l1.89-.56,1-.27,1-.27c1.27-.36,2.55-.7,3.83-1s2.55-.64,3.84-.92,2.57-.54,3.86-.74c.64-.1,1.29-.18,1.93-.25a17.54,17.54,0,0,1,1.91-.08,6.41,6.41,0,0,1,.9.08,4.18,4.18,0,0,1,.41.09,1.92,1.92,0,0,1,.32.14.41.41,0,0,1,.15.14.24.24,0,0,1,0,.14.9.9,0,0,1-.09.28l-.09.16-.05.08,0,.06,0,0a.55.55,0,0,0,.85.7l.06-.07.05-.06.09-.13a1.75,1.75,0,0,0,.16-.27,1.83,1.83,0,0,0,.22-.66,1.31,1.31,0,0,0-.15-.81,1.55,1.55,0,0,0-.53-.57A3,3,0,0,0,144,27a6.61,6.61,0,0,0-1.07-.12,15.66,15.66,0,0,0-2.06,0c-.67.05-1.34.13-2,.23-2.66.38-5.26,1-7.84,1.59-1.29.32-2.58.66-3.86,1l-1,.26-1,.28-1.91.56c-2.54.78-5.07,1.58-7.59,2.42-5,1.67-10,3.4-15,5.15s-10,3.52-15,5.31l-4.55,1.63c1.82-1.92,3.59-3.88,5.36-5.84,2.21-2.44,4.41-4.9,6.67-7.27,1.14-1.19,2.28-2.36,3.47-3.49.58-.57,1.19-1.13,1.78-1.69l.91-.83.45-.41.47-.4c1.22-1.09,2.48-2.14,3.76-3.14.65-.5,1.29-1,2-1.46l.49-.35.5-.34.51-.33.49-.3h0a.76.76,0,1,0-.8-1.3l-.55.35-.52.36-.52.37-.5.37c-.67.5-1.32,1-2,1.54-1.29,1.05-2.54,2.14-3.77,3.26l-.46.42-.45.42-.91.86c-.59.57-1.19,1.14-1.77,1.73-1.18,1.16-2.33,2.36-3.45,3.57-2.24,2.43-4.43,4.9-6.61,7.37s-4.37,4.91-6.63,7.29l-.17.06q3.22-3.93,6.44-7.88l7-8.58.87-1.06.89-1.05c.6-.71,1.2-1.41,1.79-2.13s1.18-1.45,1.74-2.2S98.74,21.8,99.27,21h0a.56.56,0,0,0,0-.08A.77.77,0,0,0,98,20.23a32.44,32.44,0,0,1-3,4.55c-.56.72-1.14,1.43-1.73,2.14L92.37,28l-.89,1.07-7,8.57q-3.85,4.7-7.73,9.37-10.49,3.76-21,7.5L52,55.82,48.3,57.13c-2.5.86-5,1.69-7.53,2.46-1.26.39-2.52.76-3.79,1.11s-2.55.67-3.83.95a32.28,32.28,0,0,1-3.84.62c-.32,0-.63,0-.94,0a6.48,6.48,0,0,1-.9-.06,2.22,2.22,0,0,1-.39-.1.94.94,0,0,1-.25-.13.09.09,0,0,1,0-.05h0a.13.13,0,0,1,0-.05l0,0v0h0a.6.6,0,0,0-1-.62l0,.06,0,.06,0,.09a1.6,1.6,0,0,0-.05.21,1.28,1.28,0,0,0,0,.44,1.26,1.26,0,0,0,.16.46,1.52,1.52,0,0,0,.28.33,2,2,0,0,0,.62.34,3.25,3.25,0,0,0,.58.14,5.76,5.76,0,0,0,1.08.09c.35,0,.7,0,1,0,.68,0,1.35-.14,2-.24s1.32-.23,2-.37c1.31-.27,2.61-.58,3.9-.92s2.57-.69,3.84-1.07c5.1-1.5,10.12-3.25,15.11-5Q65.61,52.49,75,49.13q-2.3,2.76-4.6,5.49C69.19,56,68,57.44,66.8,58.84l-1.25,1.47-.12.14L63.7,62.21,62,64l-.55.54a6.56,6.56,0,0,0-.39-.91,5.51,5.51,0,0,0-.9-1.25,5.76,5.76,0,0,0-1.21-.95,8.28,8.28,0,0,0-2.79-1,14,14,0,0,0-2.88-.21,18.13,18.13,0,0,0-2.85.3c-.47.09-.93.19-1.4.32L48.3,61l-.66.23-1.32.46c-.22.07-.43.17-.65.25L45,62.2l-.65.26-.65.26-1.28.57-.63.29-.63.31-1.25.61-1.24.66-.61.34-.31.16-.3.18a71.61,71.61,0,0,0-9.19,6.32A108.26,108.26,0,0,0,20,79.64l-1,1-.49.49-.48.52c-.64.69-1.25,1.4-1.84,2.11-1.19,1.42-2.33,2.89-3.45,4.37s-2.18,3-3.22,4.53-2,3.1-3,4.69-1.86,3.21-2.7,4.87a52,52,0,0,0-2.26,5.12,27.89,27.89,0,0,0-1.46,5.43A15.16,15.16,0,0,0,0,115.62v.18L0,116l0,.36c0,.12,0,.24,0,.36s0,.24.05.36l.08.36,0,.18.05.17.1.36c0,.11.08.23.13.34a5.86,5.86,0,0,0,.28.69l0,.08,0,.08.09.16c.06.11.11.22.18.33a7.18,7.18,0,0,0,.44.62l.12.15.14.14a1,1,0,0,0,.15.14l.15.13a3.61,3.61,0,0,0,1.44.68,4.46,4.46,0,0,0,1.54.07,9.72,9.72,0,0,0,2.8-.8,22.08,22.08,0,0,0,2.5-1.33,42.22,42.22,0,0,0,4.57-3.23c1.46-1.15,2.87-2.36,4.25-3.59,2.77-2.47,5.4-5.07,8-7.7l1.93-2,1-1,1-1,3.83-4c2.51-2.71,5-5.4,7.49-8.15s4.92-5.5,7.36-8.27l3.63-4.17,1.81-2.09,1.8-2.1,3.59-4.21.07-.09c0,.4,0,.81,0,1.22a22.86,22.86,0,0,0,.1,2.84,6.43,6.43,0,0,0,.34,1.46A4.33,4.33,0,0,0,62,74.92c.1.1.18.2.29.3l.16.14.18.12.18.12.2.09a1.74,1.74,0,0,0,.4.15l.41.09.41,0A5.06,5.06,0,0,0,65,75.9a6.68,6.68,0,0,0,1.44-.43,11.15,11.15,0,0,0,1.3-.63,24.08,24.08,0,0,0,2.38-1.52c.76-.55,1.5-1.11,2.23-1.68s1.45-1.09,2.21-1.6a43.42,43.42,0,0,1,4.68-2.79l.07,0-.3.62a12.66,12.66,0,0,0-.54,1.35,5.47,5.47,0,0,0-.2.75,3,3,0,0,0,0,.44,1.41,1.41,0,0,0,.09.51,1,1,0,0,0,.14.28,1.14,1.14,0,0,0,.25.24,1.21,1.21,0,0,0,.54.19,2.85,2.85,0,0,0,.84,0,11.32,11.32,0,0,0,1.42-.36c.46-.14.9-.3,1.34-.45l1.3-.48,1.07-.38a2.55,2.55,0,0,0-.11.33,2.14,2.14,0,0,0-.09.5,1.25,1.25,0,0,0,0,.33,1.12,1.12,0,0,0,.12.35,1.4,1.4,0,0,0,.44.51l.23.13.14.07.15,0a2.58,2.58,0,0,0,.51.07,4.19,4.19,0,0,0,.83-.1l.72-.19a27.07,27.07,0,0,0,2.66-1c1.72-.73,3.38-1.54,5-2.35l5-2.45c3.29-1.65,6.59-3.28,9.92-4.85,6.64-3.17,13.39-6.11,20.27-8.71q5.16-1.95,10.42-3.6a52.86,52.86,0,0,1,5.27-1.45c.22-.05.44-.08.66-.12l.33,0,.33,0a6,6,0,0,1,1.26,0h.14l.14,0,.12,0,.11,0,.08,0,0,0s0,0,0,0a.23.23,0,0,1,0,.07s0,.07,0,.12a1,1,0,0,1,0,.21,1.52,1.52,0,0,1-.09.25c0,.09-.09.18-.15.3h0a.56.56,0,0,0,.26.74.54.54,0,0,0,.73-.26h0c0-.08.1-.2.15-.32a2.37,2.37,0,0,0,.15-.4,2.19,2.19,0,0,0,.08-.47A1.43,1.43,0,0,0,151,47.15ZM56,71.43,54.2,73.51l-1.82,2.08-3.65,4.14-3.68,4.13c-1.22,1.38-2.46,2.73-3.7,4.09-2.46,2.74-5,5.42-7.49,8.12l-3.82,4-3.83,4c-1.28,1.32-2.56,2.64-3.85,3.94s-2.6,2.59-3.94,3.85-2.69,2.48-4.1,3.64a41.72,41.72,0,0,1-4.39,3.24A20,20,0,0,1,7.57,120a8.77,8.77,0,0,1-2.49.74,3.77,3.77,0,0,1-1.21,0,2.59,2.59,0,0,1-1-.49,1.31,1.31,0,0,1-.21-.2l-.11-.1-.09-.11a5.27,5.27,0,0,1-.36-.52,2.34,2.34,0,0,1-.15-.27l-.08-.14,0-.07,0-.08a5.22,5.22,0,0,1-.25-.59c0-.1-.08-.2-.11-.3l-.09-.31,0-.16,0-.16-.07-.32c0-.1,0-.21-.05-.32s0-.21,0-.32l0-.33,0-.16v-.17a13.88,13.88,0,0,1,.16-2.65,26.08,26.08,0,0,1,1.46-5.21,49.24,49.24,0,0,1,2.28-5Q6.22,100.32,7.67,98c1.93-3.11,4.05-6.11,6.27-9,1.11-1.46,2.26-2.89,3.43-4.29.59-.69,1.19-1.38,1.8-2,.16-.16.31-.33.47-.48l.48-.49,1-1c2.59-2.59,5.29-5.07,8.11-7.38l.54-.43.54-.42.54-.43c.18-.14.35-.28.54-.41l1.1-.82.55-.4.56-.39,1.13-.78,1.14-.75c.76-.5,1.55-1,2.33-1.43l.29-.17.3-.17.6-.33,1.2-.65,1.22-.62.61-.3.62-.29L44.25,64l.63-.27.64-.26.63-.25c.21-.09.42-.18.63-.25l1.29-.46.64-.23c.21-.08.42-.14.63-.2.42-.12.86-.22,1.29-.31a16.81,16.81,0,0,1,2.65-.31,13.42,13.42,0,0,1,2.62.16,7.51,7.51,0,0,1,2.4.83A4.37,4.37,0,0,1,60,64.14a5.45,5.45,0,0,1,.48,1.28c-.68.65-1.36,1.3-2.05,1.94l-.91.82-.93.79c-.31.27-.63.52-.94.78s-.64.5-1,.73a22,22,0,0,1-2,1.35,11.65,11.65,0,0,1-1,.56c-.18.09-.35.17-.53.24l-.26.09-.12,0-.06,0h0a.55.55,0,1,0,.19,1.09h.06l0,0,.09,0,.17,0,.32-.12a6.65,6.65,0,0,0,.61-.27,11,11,0,0,0,1.12-.61,23.31,23.31,0,0,0,2.1-1.41c.34-.24.66-.5,1-.76l.49-.39.48-.4.58-.51ZM80.62,66.6a.06.06,0,0,1-.06,0h0Zm4.8,2.54s0,0,0,0Zm.5.56Zm.47,1.09h0S86.37,70.77,86.39,70.79Z"/>
          <path class="cls-1" d="M26.84,61.86h0Z"/>
        </g>
      </g>
    </g>
  </g>
</svg>
