<svg width="144" height="105" viewBox="0 0 144 105" fill="none" xmlns="http://www.w3.org/2000/svg">
<g clip-path="url(#clip0_206_9402)">
<path d="M41.3542 103.396C40.5388 102.941 39.9001 102.316 39.4313 101.514C38.9624 100.712 38.7246 99.8155 38.7246 98.8167C38.7246 97.8179 38.9624 96.921 39.4313 96.1192C39.9001 95.3174 40.5456 94.6923 41.3542 94.2371C42.1695 93.7818 43.0868 93.5576 44.106 93.5576C44.8534 93.5576 45.5465 93.6799 46.1784 93.9177C46.8103 94.1623 47.3471 94.5157 47.7955 94.9913L47.3199 95.4805C46.4909 94.6583 45.431 94.2507 44.1332 94.2507C43.2635 94.2507 42.4753 94.4477 41.7618 94.8418C41.0484 95.2359 40.4912 95.7795 40.0903 96.4793C39.6827 97.1792 39.4856 97.9538 39.4856 98.8099C39.4856 99.666 39.6895 100.447 40.0903 101.14C40.498 101.84 41.0552 102.384 41.7618 102.778C42.4753 103.172 43.2635 103.369 44.1332 103.369C45.4174 103.369 46.4774 102.955 47.3199 102.126L47.7955 102.615C47.3539 103.091 46.8103 103.451 46.1716 103.695C45.5329 103.94 44.8466 104.062 44.106 104.062C43.0868 104.062 42.1695 103.838 41.3542 103.383V103.396Z" fill="white"/>
<path d="M56.2549 93.6318H57.0091V103.321H62.9816V104.001H56.2549V93.625V93.6318Z" fill="white"/>
<path d="M70.8496 93.6328H71.6038V104.008H70.8496V93.6328Z" fill="white"/>
<path d="M89.5903 93.6328V104.008H88.9652L81.8987 94.9986V104.008H81.1445V93.6328H81.7832L88.8361 102.643V93.6328H89.5903Z" fill="white"/>
<path d="M99.1367 93.6328H99.8909V104.008H99.1367V93.6328Z" fill="white"/>
<path d="M111.068 103.396C110.253 102.941 109.614 102.316 109.145 101.514C108.676 100.712 108.438 99.8155 108.438 98.8167C108.438 97.8179 108.676 96.921 109.145 96.1192C109.614 95.3174 110.259 94.6923 111.068 94.2371C111.883 93.7818 112.801 93.5576 113.82 93.5576C114.567 93.5576 115.26 93.6799 115.892 93.9177C116.524 94.1623 117.061 94.5157 117.509 94.9913L117.034 95.4805C116.205 94.6583 115.145 94.2507 113.847 94.2507C112.977 94.2507 112.189 94.4477 111.476 94.8418C110.762 95.2359 110.205 95.7795 109.804 96.4793C109.397 97.1792 109.199 97.9538 109.199 98.8099C109.199 99.666 109.403 100.447 109.804 101.14C110.212 101.84 110.769 102.384 111.476 102.778C112.189 103.172 112.977 103.369 113.847 103.369C115.131 103.369 116.191 102.955 117.034 102.126L117.509 102.615C117.068 103.091 116.524 103.451 115.885 103.695C115.247 103.94 114.56 104.062 113.82 104.062C112.801 104.062 111.883 103.838 111.068 103.383V103.396Z" fill="white"/>
<path d="M39.0488 59.1084H42.4937C43.3363 59.1084 44.0769 59.2715 44.7292 59.5976C45.3815 59.9238 45.8911 60.3858 46.2512 60.9837C46.6113 61.5817 46.788 62.2679 46.788 63.0493C46.788 63.8307 46.6045 64.517 46.2512 65.1149C45.8911 65.7128 45.3883 66.1749 44.7292 66.501C44.0769 66.8272 43.3295 66.9902 42.4937 66.9902H39.0488V59.1152V59.1084ZM42.4258 65.7468C43.0033 65.7468 43.5129 65.6381 43.9478 65.4139C44.3827 65.1897 44.7224 64.8771 44.9602 64.4694C45.198 64.0617 45.3135 63.5861 45.3135 63.0493C45.3135 62.5125 45.198 62.0369 44.9602 61.6292C44.7224 61.2215 44.3895 60.909 43.9478 60.6848C43.5062 60.4605 43.0033 60.3518 42.4258 60.3518H40.5165V65.7536H42.4258V65.7468Z" fill="white"/>
<path d="M51.5373 66.5761C50.8918 66.2296 50.389 65.7403 50.022 65.122C49.6551 64.5037 49.4717 63.8106 49.4717 63.0496C49.4717 62.2886 49.6551 61.5956 50.022 60.9773C50.389 60.3589 50.8986 59.8765 51.5373 59.5232C52.1828 59.1767 52.903 59 53.7048 59C54.5066 59 55.2336 59.1767 55.8723 59.5232C56.5178 59.8697 57.0206 60.3521 57.3875 60.9705C57.7544 61.5888 57.9379 62.2818 57.9379 63.0496C57.9379 63.8174 57.7544 64.5173 57.3875 65.1288C57.0206 65.7403 56.511 66.2228 55.8723 66.5761C55.2268 66.9226 54.5066 67.0993 53.7048 67.0993C52.903 67.0993 52.176 66.9226 51.5373 66.5761ZM55.1249 65.4618C55.5461 65.2239 55.8723 64.8978 56.1169 64.4697C56.3615 64.0417 56.477 63.5728 56.477 63.0496C56.477 62.5265 56.3547 62.0508 56.1169 61.6295C55.8791 61.2083 55.5461 60.8753 55.1249 60.6375C54.7036 60.3997 54.2348 60.2842 53.7048 60.2842C53.1748 60.2842 52.706 60.3997 52.2847 60.6375C51.8634 60.8753 51.5373 61.2015 51.2927 61.6295C51.0548 62.0508 50.9325 62.5265 50.9325 63.0496C50.9325 63.5728 51.0548 64.0485 51.2927 64.4697C51.5305 64.891 51.8634 65.2239 52.2847 65.4618C52.706 65.6996 53.1748 65.8151 53.7048 65.8151C54.2348 65.8151 54.7036 65.6996 55.1249 65.4618Z" fill="white"/>
<path d="M62.6741 66.5761C62.0354 66.2296 61.5326 65.7471 61.1656 65.1288C60.7987 64.5105 60.6221 63.8174 60.6221 63.0496C60.6221 62.2818 60.8055 61.582 61.1724 60.9705C61.5394 60.3589 62.0422 59.8765 62.6877 59.5232C63.3264 59.1767 64.0466 59 64.8416 59C65.4871 59 66.0782 59.1155 66.6082 59.3397C67.1382 59.564 67.5934 59.8901 67.9603 60.3182L67.0159 61.2083C66.4451 60.5968 65.7453 60.2842 64.9095 60.2842C64.3727 60.2842 63.8835 60.3997 63.4555 60.6375C63.0274 60.8753 62.6945 61.2015 62.4566 61.6228C62.2188 62.044 62.0965 62.5197 62.0965 63.0496C62.0965 63.5796 62.2188 64.0553 62.4566 64.4765C62.6945 64.8978 63.0274 65.2239 63.4555 65.4618C63.8835 65.6996 64.3659 65.8151 64.9095 65.8151C65.7385 65.8151 66.4451 65.5025 67.0159 64.8842L67.9603 65.7811C67.5934 66.2092 67.1382 66.5353 66.6082 66.7595C66.0714 66.9838 65.4803 67.0993 64.8348 67.0993C64.0398 67.0993 63.3196 66.9226 62.6809 66.5761H62.6741Z" fill="white"/>
<path d="M72.5603 60.345H69.9512V59.1084H76.6304V60.345H74.0212V66.9834H72.5603V60.345Z" fill="white"/>
<path d="M80.8156 66.5761C80.1701 66.2296 79.6673 65.7403 79.3004 65.122C78.9335 64.5037 78.75 63.8106 78.75 63.0496C78.75 62.2886 78.9335 61.5956 79.3004 60.9773C79.6673 60.3589 80.1769 59.8765 80.8156 59.5232C81.4611 59.1767 82.1813 59 82.9831 59C83.7849 59 84.5119 59.1767 85.1506 59.5232C85.7961 59.8697 86.2989 60.3521 86.6658 60.9705C87.0327 61.5888 87.2162 62.2818 87.2162 63.0496C87.2162 63.8174 87.0327 64.5173 86.6658 65.1288C86.2989 65.7403 85.7893 66.2228 85.1506 66.5761C84.5051 66.9226 83.7849 67.0993 82.9831 67.0993C82.1813 67.0993 81.4543 66.9226 80.8156 66.5761ZM84.4032 65.4618C84.8245 65.2239 85.1506 64.8978 85.3952 64.4697C85.6398 64.0417 85.7553 63.5728 85.7553 63.0496C85.7553 62.5265 85.633 62.0508 85.3952 61.6295C85.1574 61.2083 84.8245 60.8753 84.4032 60.6375C83.9819 60.3997 83.5131 60.2842 82.9831 60.2842C82.4531 60.2842 81.9843 60.3997 81.563 60.6375C81.1417 60.8753 80.8156 61.2015 80.571 61.6295C80.3332 62.0508 80.2109 62.5265 80.2109 63.0496C80.2109 63.5728 80.3332 64.0485 80.571 64.4697C80.8088 64.891 81.1417 65.2239 81.563 65.4618C81.9843 65.6996 82.4531 65.8151 82.9831 65.8151C83.5131 65.8151 83.9819 65.6996 84.4032 65.4618Z" fill="white"/>
<path d="M95.6152 66.9835L94.0048 64.6801C93.9369 64.6869 93.835 64.6937 93.6991 64.6937H91.9189V66.9903H90.458V59.1152H93.6991C94.3785 59.1152 94.9765 59.2307 95.4793 59.455C95.9821 59.6792 96.3762 60.0053 96.6412 60.4198C96.9062 60.8343 97.0489 61.3371 97.0489 61.9146C97.0489 62.4922 96.9062 63.0154 96.614 63.4435C96.3218 63.8715 95.9141 64.1909 95.3706 64.4015L97.1848 66.9903H95.6084L95.6152 66.9835ZM95.0852 60.7528C94.7523 60.481 94.2698 60.3451 93.6311 60.3451H91.9189V63.4842H93.6311C94.2698 63.4842 94.7523 63.3483 95.0852 63.0765C95.4181 62.8048 95.5812 62.4175 95.5812 61.9146C95.5812 61.4118 95.4181 61.0245 95.0852 60.7595V60.7528Z" fill="white"/>
<path d="M44.0701 74.9325C44.5797 75.1567 44.967 75.4828 45.232 75.8973C45.497 76.3118 45.6397 76.8146 45.6397 77.3921C45.6397 77.9697 45.5038 78.4589 45.232 78.8802C44.9602 79.3015 44.5729 79.6276 44.0701 79.8518C43.5605 80.0761 42.9694 80.1916 42.2899 80.1916H40.5097V82.461H39.0488V74.5859H42.2899C42.9694 74.5859 43.5673 74.7014 44.0701 74.9257V74.9325ZM43.6692 78.554C44.0022 78.2822 44.1652 77.895 44.1652 77.3921C44.1652 76.8893 44.0022 76.502 43.6692 76.237C43.3363 75.9653 42.8539 75.8294 42.2152 75.8294H40.5029V78.9549H42.2152C42.8539 78.9549 43.3363 78.819 43.6692 78.5472V78.554Z" fill="white"/>
<path d="M50.4093 82.0536C49.7638 81.7071 49.261 81.2179 48.8941 80.5996C48.5272 79.9812 48.3438 79.2882 48.3438 78.5272C48.3438 77.7662 48.5272 77.0731 48.8941 76.4548C49.261 75.8365 49.7706 75.3541 50.4093 75.0007C51.0548 74.6542 51.7751 74.4775 52.5768 74.4775C53.3786 74.4775 54.1057 74.6542 54.7444 75.0007C55.3898 75.3473 55.8927 75.8297 56.2596 76.448C56.6265 77.0663 56.8099 77.7594 56.8099 78.5272C56.8099 79.295 56.6265 79.9948 56.2596 80.6064C55.8927 81.2179 55.3831 81.7003 54.7444 82.0536C54.0989 82.4002 53.3786 82.5768 52.5768 82.5768C51.7751 82.5768 51.048 82.4002 50.4093 82.0536ZM53.9969 80.9393C54.4182 80.7015 54.7444 80.3753 54.989 79.9473C55.2336 79.5192 55.3491 79.0504 55.3491 78.5272C55.3491 78.004 55.2268 77.5284 54.989 77.1071C54.7511 76.6858 54.4182 76.3529 53.9969 76.1151C53.5757 75.8772 53.1068 75.7617 52.5768 75.7617C52.0469 75.7617 51.578 75.8772 51.1568 76.1151C50.7355 76.3529 50.4093 76.679 50.1647 77.1071C49.9269 77.5284 49.8046 78.004 49.8046 78.5272C49.8046 79.0504 49.9269 79.526 50.1647 79.9473C50.4025 80.3685 50.7355 80.7015 51.1568 80.9393C51.578 81.1771 52.0469 81.2926 52.5768 81.2926C53.1068 81.2926 53.5757 81.1771 53.9969 80.9393Z" fill="white"/>
<path d="M65.0867 74.9325C65.5963 75.1567 65.9836 75.4828 66.2486 75.8973C66.5136 76.3118 66.6563 76.8146 66.6563 77.3921C66.6563 77.9697 66.5204 78.4589 66.2486 78.8802C65.9768 79.3015 65.5895 79.6276 65.0867 79.8518C64.5771 80.0761 63.986 80.1916 63.3065 80.1916H61.5263V82.461H60.0654V74.5859H63.3065C63.986 74.5859 64.5839 74.7014 65.0867 74.9257V74.9325ZM64.6858 78.554C65.0188 78.2822 65.1818 77.895 65.1818 77.3921C65.1818 76.8893 65.0188 76.502 64.6858 76.237C64.3529 75.9653 63.8705 75.8294 63.2318 75.8294H61.5195V78.9549H63.2318C63.8705 78.9549 64.3529 78.819 64.6858 78.5472V78.554Z" fill="white"/>
<path d="M71.4191 82.0536C70.7736 81.7071 70.2708 81.2179 69.9039 80.5996C69.537 79.9812 69.3535 79.2882 69.3535 78.5272C69.3535 77.7662 69.537 77.0731 69.9039 76.4548C70.2708 75.8365 70.7804 75.3541 71.4191 75.0007C72.0646 74.6542 72.7848 74.4775 73.5866 74.4775C74.3884 74.4775 75.1154 74.6542 75.7541 75.0007C76.3996 75.3473 76.9024 75.8297 77.2693 76.448C77.6363 77.0663 77.8197 77.7594 77.8197 78.5272C77.8197 79.295 77.6363 79.9948 77.2693 80.6064C76.9024 81.2179 76.3928 81.7003 75.7541 82.0536C75.1086 82.4002 74.3884 82.5768 73.5866 82.5768C72.7848 82.5768 72.0578 82.4002 71.4191 82.0536ZM75.0067 80.9393C75.428 80.7015 75.7541 80.3753 75.9987 79.9473C76.2433 79.5192 76.3588 79.0504 76.3588 78.5272C76.3588 78.004 76.2365 77.5284 75.9987 77.1071C75.7609 76.6858 75.428 76.3529 75.0067 76.1151C74.5854 75.8772 74.1166 75.7617 73.5866 75.7617C73.0566 75.7617 72.5878 75.8772 72.1665 76.1151C71.7452 76.3529 71.4191 76.679 71.1745 77.1071C70.9367 77.5284 70.8144 78.004 70.8144 78.5272C70.8144 79.0504 70.9367 79.526 71.1745 79.9473C71.4123 80.3685 71.7452 80.7015 72.1665 80.9393C72.5878 81.1771 73.0566 81.2926 73.5866 81.2926C74.1166 81.2926 74.5854 81.1771 75.0067 80.9393Z" fill="white"/>
<path d="M88.0247 74.5928L84.5934 82.4678H83.1529L79.708 74.5928H81.2912L83.9139 80.6672L86.5571 74.5928H88.0179H88.0247Z" fill="white"/>
<path d="M91.9524 82.0536C91.3137 81.7071 90.8109 81.2247 90.444 80.6064C90.0771 79.988 89.9004 79.295 89.9004 78.5272C89.9004 77.7594 90.0838 77.0595 90.4508 76.448C90.8177 75.8365 91.3205 75.3541 91.966 75.0007C92.6047 74.6542 93.3249 74.4775 94.1199 74.4775C94.7654 74.4775 95.3565 74.593 95.8865 74.8173C96.4165 75.0415 96.8718 75.3676 97.2387 75.7957L96.2942 76.6858C95.7234 76.0743 95.0236 75.7617 94.1878 75.7617C93.6511 75.7617 93.1618 75.8772 92.7338 76.1151C92.3057 76.3529 91.9728 76.679 91.735 77.1003C91.4971 77.5216 91.3748 77.9972 91.3748 78.5272C91.3748 79.0572 91.4971 79.5328 91.735 79.9541C91.9728 80.3753 92.3057 80.7015 92.7338 80.9393C93.1618 81.1771 93.6443 81.2926 94.1878 81.2926C95.0168 81.2926 95.7234 80.9801 96.2942 80.3617L97.2387 81.2586C96.8718 81.6867 96.4165 82.0129 95.8865 82.2371C95.3497 82.4613 94.7586 82.5768 94.1131 82.5768C93.3181 82.5768 92.5979 82.4002 91.9592 82.0536H91.9524Z" fill="white"/>
<path d="M106.235 81.2379V82.461H100.33V74.5859H106.078V75.809H101.791V77.8542H105.596V79.0568H101.791V81.2311H106.235V81.2379Z" fill="white"/>
<path d="M116.638 74.5928L113.207 82.4678H111.766L108.321 74.5928H109.904L112.527 80.6672L115.17 74.5928H116.631H116.638Z" fill="white"/>
<path d="M144.049 104L127.049 104V102L142.049 102V2L41.0488 2V28L39.0488 28L39.0488 0H144.049V104Z" fill="white"/>
<path d="M102.656 31.61C102.608 31.4809 102.52 31.3586 102.425 31.2771C102.398 31.2567 102.377 31.2363 102.35 31.216L102.275 31.1684C102.221 31.1344 102.173 31.114 102.126 31.0936C102.071 31.0665 102.024 31.0529 101.976 31.0393C101.929 31.0257 101.881 31.0121 101.834 30.9985C101.786 30.9917 101.738 30.9781 101.691 30.9713L101.555 30.9578C101.195 30.9238 100.869 30.9442 100.543 30.9849C100.461 30.9917 100.38 31.0053 100.298 31.0121C100.216 31.0257 100.135 31.0325 100.06 31.0461C99.9039 31.0733 99.7408 31.1004 99.5845 31.1344C98.3275 31.3858 97.1249 31.7731 95.929 32.14C93.5305 32.8942 91.1591 33.7164 88.8082 34.5997C84.1062 36.3663 79.5062 38.3776 74.9674 40.5111C72.6979 41.5779 70.4489 42.6786 68.1999 43.7861C67.0787 44.3433 65.9576 44.8937 64.8297 45.4373C63.7085 45.9808 62.5806 46.5176 61.4391 47.0068C61.1537 47.1291 60.8684 47.2446 60.583 47.3534C60.2976 47.4621 60.0122 47.5572 59.7269 47.6319C59.5842 47.6727 59.4415 47.6999 59.3056 47.7203C59.1697 47.7407 59.0338 47.7542 58.9319 47.7407C58.8843 47.7407 58.8368 47.7271 58.8164 47.7203H58.8028C58.8028 47.7203 58.8028 47.7203 58.7892 47.7135C58.7756 47.7067 58.762 47.6931 58.7552 47.6863C58.7552 47.6863 58.7552 47.6863 58.7552 47.6795C58.7552 47.6591 58.7688 47.6183 58.7824 47.564C58.8028 47.5096 58.8232 47.4485 58.8503 47.3737C58.9047 47.2311 58.9726 47.068 59.0202 46.8641C59.0338 46.8098 59.0406 46.7554 59.0474 46.7011C59.0474 46.6739 59.0474 46.6467 59.0542 46.6127C59.0542 46.5856 59.0678 46.572 59.0474 46.4361C59.0338 46.3206 58.9387 46.1643 58.8368 46.0895C58.728 46.008 58.6397 45.9876 58.5854 45.9808C58.4563 45.9604 58.3883 45.9672 58.3204 45.974C58.1913 45.9876 58.1029 46.0148 58.0146 46.042C57.9263 46.0692 57.8447 46.0963 57.7632 46.1235C57.4506 46.239 57.1585 46.3681 56.8731 46.4972L56.017 46.8845C55.7316 47.0136 55.453 47.1359 55.1676 47.2446C54.889 47.3534 54.5969 47.4485 54.3251 47.5096C54.1892 47.5368 54.0533 47.5504 53.965 47.5436C53.9242 47.5436 53.8902 47.53 53.897 47.53C53.897 47.53 53.897 47.5232 53.8902 47.5096C53.8834 47.4893 53.8766 47.4485 53.8766 47.4009C53.8766 47.3534 53.8834 47.2922 53.897 47.2311C53.9242 47.1087 53.9718 46.9729 54.0261 46.8438C54.1416 46.5788 54.2911 46.3138 54.4406 46.0556C54.5969 45.7906 54.7599 45.5324 54.9162 45.2538C54.9977 45.1179 55.0657 44.9752 55.1268 44.7918C55.1472 44.7442 55.1608 44.6966 55.1812 44.6219C55.1812 44.5811 55.2084 44.5404 55.1948 44.4045C55.2695 44.2074 54.7192 43.9016 54.6716 44.024C54.5561 44.0511 54.5561 44.0579 54.5357 44.0647L54.4814 44.0851L54.3658 44.1327C54.0669 44.2618 53.7747 44.4045 53.4893 44.5539C52.3614 45.1451 51.2811 45.811 50.2415 46.5312C49.7183 46.8913 49.2087 47.2718 48.7127 47.6591C48.2166 48.0464 47.7274 48.4201 47.2246 48.787C46.7218 49.1472 46.2122 49.4869 45.6822 49.7791C45.159 50.0712 44.6019 50.3158 44.0583 50.411C43.7865 50.4517 43.5215 50.4585 43.2905 50.3906C43.2361 50.3702 43.175 50.3566 43.1274 50.3294L43.0459 50.2887C43.0459 50.2887 42.9983 50.2547 42.9711 50.2411C42.9508 50.2207 42.9236 50.2139 42.8964 50.1935L42.8284 50.1324C42.7809 50.0984 42.7401 50.0441 42.6993 49.9965C42.3528 49.6024 42.183 49.0588 42.115 48.4745C42.0471 47.8901 42.0539 47.2786 42.0606 46.6535C42.0674 46.0895 42.0742 45.5188 42.0335 44.9344L43.6574 43.0115C44.466 42.0535 45.2677 41.0954 46.0695 40.1306C46.4296 39.7025 46.7898 39.2677 47.1499 38.8396C47.9652 37.9835 48.7738 37.1205 49.5824 36.2576C50.9345 34.8307 52.2867 33.4174 53.6524 32.0041C55.2899 31.4198 56.9342 30.8355 58.5718 30.2511C65.3529 27.839 72.1204 25.3997 78.9423 23.1235C80.6477 22.5527 82.3532 22.0091 84.0723 21.4792C84.5003 21.3501 84.9284 21.2277 85.3633 21.0986L86.0088 20.9084L86.6542 20.7249C87.5172 20.4871 88.3869 20.2493 89.2498 20.0319C90.1195 19.8077 90.9893 19.6038 91.859 19.4136C92.7287 19.2233 93.6052 19.0467 94.4817 18.9108C94.9166 18.8428 95.3582 18.7817 95.7931 18.7409C96.228 18.7001 96.6628 18.6729 97.0909 18.6865C97.3015 18.6865 97.5122 18.7069 97.7024 18.7409C97.7975 18.7545 97.8927 18.7817 97.981 18.802C98.0625 18.8292 98.1441 18.8632 98.1984 18.8972C98.2528 18.9311 98.2868 18.9651 98.3004 18.9923C98.3139 19.0195 98.3207 19.0399 98.3207 19.0874C98.3207 19.135 98.2935 19.2097 98.2596 19.2777C98.2392 19.3116 98.2188 19.3524 98.1984 19.3864C98.1848 19.4068 98.178 19.4204 98.1645 19.4407L98.1305 19.4815L98.1101 19.5087C97.9946 19.665 98.015 19.8824 98.1577 20.0115C98.3139 20.1474 98.545 20.1338 98.6876 19.9843C98.708 19.9639 98.7148 19.9503 98.7284 19.9368L98.7624 19.896C98.7624 19.896 98.8032 19.8416 98.8235 19.8077C98.8643 19.7533 98.8983 19.6921 98.9323 19.6242C99.0002 19.4951 99.0546 19.3524 99.0817 19.1758C99.1089 19.0059 99.0817 18.7952 98.9866 18.6186C98.8915 18.4419 98.7556 18.3196 98.6265 18.2381C98.3615 18.0682 98.1033 18.0071 97.8519 17.9527C97.6005 17.9051 97.3627 17.8848 97.1249 17.8712C96.6492 17.8508 96.1872 17.8712 95.7252 17.9051C95.2631 17.9391 94.8079 17.9935 94.3594 18.0614C92.552 18.3196 90.7854 18.7137 89.0324 19.1486C88.1559 19.366 87.2794 19.597 86.4096 19.828L85.7573 20.0047L85.105 20.195C84.6702 20.3241 84.2353 20.4464 83.8073 20.5755C82.0814 21.1054 80.3624 21.649 78.6501 22.2198C75.2256 23.3545 71.8282 24.53 68.4309 25.719C65.0335 26.9149 61.643 28.1108 58.2524 29.327C57.2264 29.6939 56.1936 30.0676 55.1676 30.4346C56.4043 29.13 57.6069 27.7982 58.8096 26.4665C60.3112 24.8086 61.7992 23.1371 63.3416 21.5267C64.1094 20.7181 64.8908 19.9232 65.6926 19.1554C66.0935 18.7681 66.5012 18.3876 66.9021 18.0071C67.1059 17.8168 67.3097 17.6334 67.5204 17.4431L67.8261 17.1645L68.1387 16.8927C68.9744 16.1589 69.8238 15.4455 70.7003 14.7592C71.142 14.4195 71.5768 14.0865 72.0253 13.7672C72.134 13.6856 72.2495 13.6109 72.365 13.5294C72.4805 13.4478 72.5892 13.3731 72.7047 13.2983C72.8202 13.2236 72.9358 13.1489 73.0445 13.0741C73.16 13.0062 73.2755 12.9314 73.3774 12.8703H73.391C73.391 12.8703 73.391 12.8567 73.3978 12.8567C73.6424 12.7072 73.7171 12.3878 73.5677 12.1432C73.4182 11.8986 73.0988 11.8239 72.8542 11.9734C72.7183 12.0549 72.6028 12.1364 72.4805 12.218C72.3582 12.2995 72.2427 12.3811 72.1272 12.4626C72.0117 12.5441 71.8962 12.6257 71.7807 12.714C71.6651 12.7955 71.5496 12.8839 71.4341 12.9654C70.9789 13.3051 70.5372 13.6585 70.0956 14.0118C69.219 14.7252 68.3697 15.4658 67.5408 16.2269L67.2282 16.5122L66.9224 16.7976C66.7186 16.9879 66.508 17.1781 66.3041 17.3752C65.9032 17.7692 65.4888 18.1565 65.0947 18.5506C64.2929 19.3388 63.5115 20.1542 62.7505 20.9763C61.2285 22.6275 59.7404 24.3057 58.2592 25.9772C56.778 27.6487 55.2899 29.3202 53.7611 30.9306C53.7203 30.9442 53.6796 30.9578 53.6456 30.9713C55.1065 29.1911 56.5673 27.4041 58.0282 25.6171L62.7709 19.7873L63.362 19.067C63.5591 18.8292 63.7697 18.5914 63.9668 18.3468C64.3744 17.8712 64.7821 17.3887 65.183 16.8995C65.5839 16.4103 65.9848 15.9143 66.3653 15.4047C66.7458 14.8951 67.1127 14.3719 67.4796 13.8555C67.4796 13.8555 67.5 13.8215 67.5136 13.8011C67.6495 13.5497 67.5544 13.2304 67.3029 13.0945C67.0515 12.9586 66.7322 13.0537 66.5963 13.3051C66.012 14.3923 65.3257 15.4183 64.5647 16.3967C64.1842 16.8859 63.7901 17.3684 63.3892 17.8508L62.7845 18.571L62.1797 19.2981L57.4302 25.1211C55.684 27.2478 53.931 29.3746 52.178 31.4877C47.4285 33.1932 42.679 34.8987 37.9295 36.5838L35.3883 37.4875C34.5389 37.7864 33.6964 38.0854 32.847 38.3776C31.1484 38.9551 29.4429 39.5259 27.7306 40.0491C26.8745 40.3141 26.0116 40.5655 25.1486 40.7965C24.2857 41.0343 23.4228 41.2517 22.5531 41.442C21.6833 41.6254 20.8068 41.7953 19.9439 41.8632C19.7265 41.8836 19.5158 41.8904 19.2984 41.8904C19.0878 41.8904 18.8771 41.8768 18.6869 41.8497C18.5918 41.8361 18.5034 41.8089 18.4219 41.7817C18.3472 41.7545 18.2792 41.7206 18.252 41.6934C18.2384 41.6798 18.2316 41.6662 18.2316 41.6662C18.2316 41.6662 18.2316 41.6662 18.2316 41.6526C18.2316 41.6526 18.2316 41.639 18.2384 41.6254C18.2384 41.6186 18.2384 41.6118 18.2452 41.5982C18.2452 41.5982 18.2452 41.5915 18.2452 41.5847C18.3539 41.3944 18.2996 41.1498 18.1093 41.0343C17.9191 40.9188 17.6677 40.9731 17.5454 41.1634C17.5318 41.1838 17.525 41.1974 17.5182 41.211L17.5046 41.2449C17.5046 41.2449 17.4842 41.2925 17.4774 41.3129C17.4638 41.3604 17.4503 41.4012 17.4367 41.4488C17.4163 41.5439 17.4095 41.6458 17.4231 41.7545C17.4367 41.8632 17.4774 41.972 17.5318 42.0603C17.5861 42.1554 17.6541 42.2234 17.7288 42.2845C17.8715 42.4 18.0142 42.468 18.1501 42.5155C18.286 42.5631 18.4151 42.5903 18.5442 42.6107C18.7956 42.6582 19.0402 42.665 19.278 42.6718C19.5158 42.6718 19.7537 42.665 19.9847 42.6446C20.4467 42.6107 20.9088 42.5563 21.3572 42.4816C21.8057 42.4068 22.2609 42.3253 22.7026 42.237C23.5927 42.0535 24.476 41.8429 25.3525 41.6118C26.229 41.3808 27.0987 41.1362 27.9617 40.8848C31.4269 39.8656 34.8379 38.6765 38.2216 37.4671C42.4683 35.9654 46.7014 34.4502 50.9413 32.935C49.9017 34.1784 48.8621 35.4219 47.8158 36.6653C47.014 37.6234 46.1986 38.5814 45.39 39.5327C45.1047 39.8656 44.8261 40.1985 44.5407 40.5315C44.5135 40.5587 44.4796 40.5926 44.4524 40.6198L43.2769 41.8157C42.8828 42.2098 42.4887 42.6107 42.0946 42.998C41.9723 43.1203 41.8432 43.2426 41.7209 43.3649C41.6462 43.1542 41.5646 42.9436 41.4559 42.7398C41.2928 42.434 41.089 42.1418 40.8444 41.8904C40.5998 41.639 40.3212 41.4216 40.0222 41.2449C39.4243 40.8916 38.7788 40.681 38.1265 40.5655C37.4742 40.4432 36.8219 40.4092 36.1696 40.4228C35.5174 40.4364 34.8719 40.5111 34.24 40.6266C33.9206 40.6878 33.6012 40.7557 33.2887 40.844C33.1324 40.8848 32.9693 40.9324 32.8199 40.9867L32.3714 41.143L31.4745 41.4556C31.325 41.5031 31.1755 41.5711 31.0329 41.6254L30.5912 41.8021L30.1495 41.9788C30.0001 42.0399 29.8574 42.0943 29.7079 42.1622L28.8382 42.5495C28.6955 42.6175 28.546 42.6786 28.4033 42.7466L27.9752 42.9572L27.1259 43.3785C26.8473 43.5211 26.5687 43.6774 26.2902 43.8269L25.8757 44.0511L25.665 44.1666L25.4612 44.2889C23.2665 45.5528 21.1805 47 19.2169 48.5832C17.2532 50.1732 15.3983 51.8854 13.6112 53.6588L12.9522 54.3315L12.6192 54.6712C12.5037 54.7868 12.395 54.9023 12.2863 55.0246C11.8514 55.4934 11.4437 55.9758 11.0361 56.4583C10.2275 57.4231 9.45289 58.4219 8.69868 59.4275C7.94447 60.4331 7.21064 61.4591 6.51079 62.5055C5.80414 63.5519 5.12467 64.6119 4.47918 65.6922C3.83368 66.7726 3.21536 67.8733 2.64461 69.0081C2.08065 70.136 1.55066 71.2911 1.10901 72.4801C0.674146 73.6692 0.300438 74.8991 0.116981 76.1765C0.0218551 76.8152 -0.018913 77.4607 0.00826575 78.1197V78.242L0.0218551 78.3643L0.0422392 78.609C0.0422392 78.6905 0.0626233 78.772 0.0762127 78.8536C0.0898021 78.9351 0.0965968 79.0166 0.116981 79.0982L0.171338 79.3428L0.198517 79.4651L0.232491 79.5874L0.300438 79.8252C0.327617 79.9067 0.354795 79.9815 0.381974 80.063C0.436332 80.2193 0.511073 80.3756 0.57902 80.5251L0.606199 80.5794L0.633378 80.6338L0.69453 80.7425C0.735298 80.8172 0.776067 80.892 0.816835 80.9599C0.91196 81.1026 0.993497 81.2385 1.1158 81.3812C1.14298 81.4152 1.17016 81.4491 1.20413 81.4831L1.29926 81.5782C1.29926 81.5782 1.36041 81.6462 1.39438 81.6734L1.5031 81.7617C1.78848 81.9927 2.13501 82.149 2.48154 82.2305C2.83486 82.3121 3.18818 82.3121 3.52792 82.2781C4.20739 82.2034 4.8325 81.9859 5.43043 81.7277C6.02157 81.4695 6.59233 81.1638 7.1359 80.8308C8.22305 80.1649 9.24905 79.4175 10.2411 78.6361C11.2331 77.8548 12.1912 77.0326 13.1288 76.1968C15.0042 74.5186 16.798 72.7519 18.5578 70.9649L19.8692 69.6196L20.5215 68.9469L21.1737 68.2674L23.7761 65.5496C25.4816 63.7082 27.2006 61.8804 28.8653 60.0119C30.5504 58.1569 32.2083 56.2748 33.8662 54.3927L36.3327 51.5525L37.5626 50.1324L38.7856 48.7055L41.2249 45.8449L41.2725 45.7838C41.2725 46.0556 41.2725 46.3342 41.2725 46.6127C41.2725 47.2379 41.2589 47.8765 41.3404 48.5424C41.3812 48.8754 41.4491 49.2083 41.5714 49.5412C41.6937 49.8674 41.8704 50.1935 42.1082 50.4653C42.1694 50.5333 42.2237 50.6012 42.3053 50.6624L42.414 50.7575C42.4479 50.7915 42.4955 50.8119 42.5363 50.839C42.577 50.8662 42.6178 50.8934 42.6586 50.9206L42.7877 50.9885C42.876 51.0361 42.9711 51.0565 43.0595 51.0904C43.1546 51.1176 43.2497 51.1312 43.3381 51.1516C43.4332 51.1584 43.5283 51.172 43.6166 51.172C43.8001 51.172 43.9835 51.1584 44.1534 51.1312C44.4999 51.0701 44.8261 50.9681 45.1318 50.839C45.4376 50.7167 45.7298 50.5672 46.0152 50.411C46.5859 50.0984 47.1159 49.7451 47.6323 49.3714C48.1487 49.0045 48.6515 48.6172 49.1475 48.2367C49.6435 47.8562 50.1327 47.496 50.6491 47.1427C51.6751 46.4497 52.7351 45.8042 53.8291 45.247C53.8427 45.2402 53.863 45.2334 53.8766 45.2198C53.8087 45.3557 53.7407 45.4984 53.6728 45.6411C53.5369 45.9333 53.4078 46.2322 53.3059 46.5584C53.2515 46.7215 53.2039 46.8845 53.17 47.068C53.1564 47.1631 53.1428 47.2582 53.1428 47.3602C53.1428 47.4689 53.1564 47.5844 53.1972 47.7135C53.2175 47.7746 53.2515 47.8426 53.2991 47.9037C53.3466 47.9649 53.3942 48.0192 53.4622 48.0668C53.598 48.1551 53.7271 48.1823 53.8359 48.2027C54.0533 48.2299 54.2299 48.2027 54.4066 48.1755C54.7463 48.1212 55.0589 48.026 55.3715 47.9309C55.6772 47.8358 55.983 47.7339 56.2819 47.6251C56.5809 47.5164 56.8731 47.4077 57.1653 47.3058C57.4099 47.2175 57.6545 47.1291 57.8855 47.0476C57.8583 47.1155 57.8379 47.1835 57.8108 47.2718C57.7836 47.3669 57.7564 47.4757 57.7496 47.6184C57.7496 47.6863 57.7496 47.761 57.7632 47.8426C57.7768 47.9241 57.804 48.0056 57.8447 48.0804C57.9195 48.2367 58.0418 48.3454 58.1437 48.4201C58.1981 48.4541 58.2524 48.4881 58.3 48.5153C58.3204 48.5288 58.3611 48.5424 58.3951 48.556C58.4291 48.5696 58.463 48.5832 58.497 48.59C58.6261 48.624 58.7416 48.6376 58.8435 48.6376C59.0542 48.6376 59.2308 48.6104 59.4007 48.5696C59.5706 48.5356 59.7337 48.4881 59.8967 48.4405C60.5286 48.2435 61.1198 48.0124 61.7041 47.761C62.866 47.265 64.0007 46.7147 65.1286 46.1643C66.2566 45.6139 67.3777 45.05 68.4988 44.4928C70.7411 43.3785 72.9833 42.2709 75.2392 41.1974C79.7576 39.0502 84.3372 37.0526 89.012 35.286C91.3494 34.4027 93.7071 33.5873 96.0921 32.8399C97.2879 32.473 98.477 32.0925 99.6729 31.8547C99.8224 31.8207 99.9718 31.8003 100.121 31.7731C100.196 31.7595 100.271 31.7527 100.346 31.7391C100.42 31.7256 100.495 31.7188 100.57 31.712C100.862 31.678 101.161 31.6644 101.426 31.6916L101.521 31.7052L101.609 31.7256C101.609 31.7256 101.671 31.7391 101.691 31.7459C101.718 31.7527 101.745 31.7595 101.766 31.7731C101.786 31.7799 101.813 31.7935 101.827 31.8003C101.834 31.8003 101.84 31.8071 101.854 31.8139C101.854 31.8139 101.861 31.8207 101.868 31.8275C101.888 31.8479 101.895 31.8615 101.902 31.875C101.908 31.8886 101.908 31.9158 101.915 31.9566C101.915 31.9973 101.902 32.0449 101.888 32.0993C101.874 32.1536 101.847 32.208 101.827 32.2691C101.8 32.3303 101.772 32.3846 101.732 32.473C101.643 32.6564 101.718 32.8807 101.908 32.9758C102.092 33.0641 102.316 32.9894 102.411 32.7991C102.438 32.738 102.479 32.6564 102.513 32.5749C102.547 32.4934 102.581 32.405 102.615 32.3031C102.642 32.208 102.663 32.0993 102.669 31.9838C102.669 31.8682 102.663 31.7323 102.608 31.6033L102.656 31.61ZM38.1129 48.1008L36.8831 49.5209L35.6465 50.9274L33.1664 53.7472L30.6659 56.5466C29.837 57.4842 28.9876 58.4015 28.1519 59.3324C26.4804 61.1942 24.7681 63.0151 23.0627 64.8429L20.4671 67.5472L17.8579 70.2515C16.9882 71.1484 16.1185 72.0453 15.242 72.9354C14.3655 73.8187 13.4754 74.6952 12.5649 75.5513C11.6612 76.4075 10.7303 77.2364 9.77904 78.0314C8.82099 78.8196 7.83576 79.5806 6.79617 80.2329C6.27977 80.559 5.74299 80.858 5.19262 81.1094C4.64225 81.354 4.07149 81.5511 3.50074 81.6122C3.21536 81.6462 2.93678 81.6394 2.67858 81.5782C2.42038 81.5239 2.18257 81.4084 1.97873 81.2453C1.93116 81.2045 1.87681 81.1638 1.82924 81.1162L1.7613 81.0483C1.7613 81.0483 1.72053 80.9939 1.70015 80.9735C1.61181 80.8784 1.53707 80.7425 1.45554 80.627C1.41477 80.5658 1.38759 80.4979 1.34682 80.4367L1.29246 80.3416L1.26528 80.294L1.2449 80.2465C1.18375 80.1106 1.1226 79.9815 1.07503 79.8456C1.04785 79.7776 1.02068 79.7097 1.00029 79.6418L0.939139 79.4311L0.91196 79.3224L0.891576 79.2137L0.844013 78.9963C0.830424 78.9215 0.823629 78.8468 0.81004 78.7788C0.803245 78.7041 0.782861 78.6361 0.782861 78.5614L0.762477 78.3372V78.2285L0.748888 78.1197C0.721709 77.5218 0.769272 76.9171 0.864398 76.3191C1.05465 75.1165 1.41477 73.9342 1.85642 72.7859C2.29808 71.6376 2.82807 70.5097 3.40561 69.4157C3.98316 68.315 4.60828 67.2414 5.26057 66.1883C6.57194 64.0751 8.01242 62.0367 9.52084 60.0594C10.2751 59.0674 11.0564 58.1026 11.8514 57.1513C12.2523 56.6757 12.66 56.2068 13.0745 55.7584C13.1764 55.6429 13.2851 55.5342 13.387 55.4255L13.7132 55.0925L14.3723 54.4266C16.1321 52.6668 17.9667 50.9817 19.8895 49.4121C20.0051 49.3102 20.1274 49.2151 20.2497 49.12L20.6166 48.8346L20.9835 48.5492C21.1058 48.4541 21.2281 48.359 21.3504 48.2638L22.0978 47.7135C22.2201 47.6251 22.3492 47.53 22.4715 47.4417L22.852 47.1767L23.613 46.6467L24.3944 46.1439C24.9108 45.7974 25.4476 45.4916 25.9776 45.1723L26.1746 45.05L26.3785 44.9344L26.7862 44.7102C27.058 44.5607 27.3297 44.4113 27.6015 44.2686L28.4305 43.8541L28.845 43.6435C28.9876 43.5755 29.1235 43.5144 29.2662 43.4532L30.1088 43.0727C30.2515 43.0047 30.3942 42.9504 30.5368 42.8892L30.9649 42.7126L31.393 42.5359C31.5357 42.4816 31.6784 42.4136 31.8278 42.366L32.7043 42.0535L33.1392 41.8972C33.2819 41.8497 33.4246 41.8021 33.5673 41.7613C33.8527 41.6798 34.1516 41.6118 34.4438 41.5507C35.0349 41.4352 35.6397 41.3604 36.2376 41.3401C36.8355 41.3197 37.4403 41.3468 38.0178 41.4488C38.5954 41.5507 39.1593 41.7273 39.6417 42.0127C40.131 42.2913 40.525 42.6922 40.7832 43.1814C40.9327 43.4532 41.0346 43.7454 41.1094 44.0511C40.6474 44.4928 40.1853 44.9344 39.7165 45.3693L39.0982 45.9265C38.8875 46.1099 38.6769 46.2866 38.4663 46.47C38.2556 46.6535 38.0382 46.8234 37.8275 46.9932C37.6101 47.1631 37.3927 47.333 37.1685 47.496C36.7268 47.8222 36.2716 48.1347 35.8095 48.4133C35.5785 48.5492 35.3407 48.6851 35.1029 48.7938C34.9806 48.8482 34.8651 48.9025 34.7428 48.9501C34.6816 48.9705 34.6205 48.9977 34.5661 49.0113C34.5389 49.0181 34.5049 49.0317 34.4846 49.0384C34.471 49.0384 34.4574 49.0452 34.4438 49.052H34.4302H34.4234C34.2196 49.086 34.0837 49.2763 34.1176 49.4801C34.1516 49.6839 34.3419 49.8198 34.5457 49.7859H34.5729L34.5933 49.7791H34.6272C34.6272 49.7791 34.668 49.7587 34.6884 49.7519C34.7292 49.7383 34.7631 49.7315 34.8039 49.7179C34.8787 49.6907 34.9466 49.6636 35.0213 49.6364C35.164 49.582 35.2999 49.5209 35.429 49.4529C35.694 49.3238 35.9454 49.1811 36.1968 49.0384C36.6928 48.7463 37.1617 48.4201 37.6169 48.0804C37.8479 47.9105 38.0654 47.7339 38.2964 47.564L38.6293 47.2922C38.738 47.2039 38.8468 47.1155 38.9555 47.0204C39.0846 46.9049 39.2205 46.7962 39.3496 46.6807L38.0993 48.1212L38.1129 48.1008ZM54.8347 44.8257C54.8347 44.8257 54.8143 44.8393 54.7939 44.8393H54.8075L54.8347 44.8257ZM58.7552 47.6659C58.7552 47.6659 58.7552 47.6659 58.7552 47.6727C58.7348 47.6591 58.7416 47.6523 58.7552 47.6659Z" fill="white"/>
</g>
<defs>
<clipPath id="clip0_206_9402">
<rect width="144" height="105" fill="white"/>
</clipPath>
</defs>
</svg>
