<svg width="128" height="44" viewBox="0 0 128 44" fill="none" xmlns="http://www.w3.org/2000/svg">
<g clip-path="url(#clip0_206_8792)">
<path d="M61.332 8.59355H63.7358C64.2747 8.58411 64.8084 8.70115 65.2939 8.93524C65.7337 9.14695 66.1025 9.48185 66.3554 9.89919C66.6026 10.3385 66.7324 10.8339 66.7324 11.3379C66.7324 11.8419 66.6026 12.3374 66.3554 12.7767C66.1025 13.194 65.7337 13.5289 65.2939 13.7406C64.8084 13.9747 64.2747 14.0917 63.7358 14.0823H61.332V8.59355ZM63.6854 13.2227C64.0583 13.2316 64.4281 13.1527 64.7649 12.9925C65.0662 12.8495 65.3171 12.6188 65.4846 12.3306C65.6475 12.0257 65.7327 11.6854 65.7327 11.3397C65.7327 10.9941 65.6475 10.6537 65.4846 10.3488C65.3171 10.0606 65.0662 9.82991 64.7649 9.68698C64.4281 9.52669 64.0583 9.44784 63.6854 9.45678H62.354V13.2227H63.6854Z" fill="#333333"/>
<path d="M70.0427 13.7836C69.6025 13.5508 69.2352 13.2011 68.9811 12.7729C68.7311 12.3314 68.5996 11.8326 68.5996 11.3252C68.5996 10.8178 68.7311 10.3191 68.9811 9.87751C69.2352 9.44939 69.6025 9.09964 70.0427 8.86679C70.5112 8.62575 71.0306 8.5 71.5576 8.5C72.0846 8.5 72.604 8.62575 73.0726 8.86679C73.5114 9.09859 73.8775 9.44713 74.1305 9.87391C74.3829 10.316 74.5157 10.8162 74.5157 11.3252C74.5157 11.8342 74.3829 12.3345 74.1305 12.7765C73.8775 13.2033 73.5114 13.5519 73.0726 13.7836C72.604 14.0247 72.0846 14.1504 71.5576 14.1504C71.0306 14.1504 70.5112 14.0247 70.0427 13.7836ZM72.5616 13.0067C72.8519 12.8468 73.0904 12.6072 73.2489 12.3162C73.4142 12.012 73.5008 11.6714 73.5008 11.3252C73.5008 10.9791 73.4142 10.6384 73.2489 10.3343C73.0877 10.0453 72.8499 9.80632 72.5616 9.64371C72.2572 9.48093 71.9173 9.39577 71.572 9.39577C71.2268 9.39577 70.8869 9.48093 70.5824 9.64371C70.2935 9.80669 70.0546 10.0455 69.8915 10.3343C69.7262 10.6384 69.6396 10.9791 69.6396 11.3252C69.6396 11.6714 69.7262 12.012 69.8915 12.3162C70.0525 12.6066 70.2919 12.8459 70.5824 13.0067C70.8869 13.1695 71.2268 13.2547 71.572 13.2547C71.9173 13.2547 72.2572 13.1695 72.5616 13.0067Z" fill="#333333"/>
<path d="M77.8049 13.7836C77.3681 13.5517 77.0043 13.203 76.7541 12.7765C76.5031 12.334 76.3711 11.8339 76.3711 11.3252C76.3711 10.8164 76.5031 10.3164 76.7541 9.87385C77.0067 9.44803 77.3714 9.09967 77.8085 8.86674C78.2282 8.64986 78.6898 8.52602 79.1617 8.50368C79.6337 8.48133 80.1049 8.561 80.5433 8.73726C80.9072 8.88736 81.2303 9.12157 81.4861 9.42065L80.8419 10.0321C80.6576 9.82602 80.4311 9.66189 80.1778 9.55082C79.9245 9.43975 79.6503 9.38432 79.3738 9.38828C79.0198 9.38241 78.6703 9.46788 78.359 9.63646C78.0672 9.79651 77.8256 10.0343 77.6609 10.3235C77.4981 10.6297 77.4129 10.9712 77.4129 11.318C77.4129 11.6648 77.4981 12.0063 77.6609 12.3125C77.8256 12.6016 78.0672 12.8394 78.359 12.9995C78.6703 13.1681 79.0198 13.2536 79.3738 13.2477C79.6511 13.2519 79.926 13.1959 80.1795 13.0835C80.433 12.9711 80.659 12.805 80.8419 12.5966L81.5005 13.2225C81.244 13.5224 80.9195 13.7568 80.5541 13.9059C80.1629 14.0676 79.7431 14.1484 79.3198 14.1433C78.7923 14.1554 78.2706 14.0315 77.8049 13.7836Z" fill="#333333"/>
<path d="M84.7114 9.44236H82.8906V8.59351H87.5506V9.45674H85.7226V14.0859H84.7042L84.7114 9.44236Z" fill="#333333"/>
<path d="M90.4681 13.7836C90.0283 13.5517 89.6619 13.2016 89.4102 12.7729C89.158 12.3321 89.0254 11.833 89.0254 11.3252C89.0254 10.8174 89.158 10.3184 89.4102 9.87751C89.6619 9.44881 90.0283 9.09879 90.4681 8.86679C90.9367 8.62575 91.4561 8.5 91.9831 8.5C92.51 8.5 93.0294 8.62575 93.498 8.86679C93.9371 9.09942 94.3042 9.44769 94.5595 9.87391C94.812 10.316 94.9447 10.8162 94.9447 11.3252C94.9447 11.8342 94.812 12.3345 94.5595 12.7765C94.3042 13.2028 93.9371 13.551 93.498 13.7836C93.0294 14.0247 92.51 14.1504 91.9831 14.1504C91.4561 14.1504 90.9367 14.0247 90.4681 13.7836ZM92.987 13.0067C93.2791 12.848 93.5191 12.6081 93.6779 12.3162C93.8433 12.012 93.9299 11.6714 93.9299 11.3252C93.9299 10.9791 93.8433 10.6384 93.6779 10.3343C93.517 10.0439 93.2776 9.80457 92.987 9.64371C92.6832 9.48094 92.3439 9.39576 91.9993 9.39576C91.6546 9.39576 91.3153 9.48094 91.0115 9.64371C90.7209 9.80457 90.4815 10.0439 90.3206 10.3343C90.1552 10.6384 90.0686 10.9791 90.0686 11.3252C90.0686 11.6714 90.1552 12.012 90.3206 12.3162C90.4794 12.6081 90.7194 12.848 91.0115 13.0067C91.3153 13.1695 91.6546 13.2547 91.9993 13.2547C92.3439 13.2547 92.6832 13.1695 92.987 13.0067Z" fill="#333333"/>
<path d="M100.796 14.0715L99.6772 12.4637H99.4649H98.2234V14.0643H97.2051V8.59354H99.4649C99.8909 8.5839 100.314 8.66482 100.706 8.83094C101.039 8.96883 101.322 9.20311 101.52 9.50354C101.713 9.81644 101.812 10.1788 101.804 10.5466C101.816 10.9288 101.711 11.3055 101.502 11.6257C101.289 11.932 100.986 12.1646 100.634 12.2911L101.897 14.0895L100.796 14.0715ZM100.436 9.72654C100.143 9.51743 99.7851 9.41697 99.4253 9.44239H98.2306V11.6329H99.4253C99.7856 11.6572 100.143 11.5555 100.436 11.3451C100.556 11.2469 100.65 11.1223 100.712 10.9812C100.775 10.8401 100.804 10.6864 100.796 10.5322C100.803 10.3785 100.773 10.2255 100.709 10.0855C100.645 9.94553 100.55 9.82254 100.429 9.72654H100.436Z" fill="#333333"/>
<path d="M64.8506 18.8163C65.1823 18.9552 65.4653 19.1892 65.6638 19.4889C65.8478 19.8052 65.9446 20.1644 65.9446 20.5302C65.9446 20.896 65.8478 21.2553 65.6638 21.5715C65.4657 21.8733 65.1828 22.1098 64.8506 22.2513C64.4563 22.4148 64.0323 22.4944 63.6055 22.4851H62.3677V24.0713H61.3457V18.5789H63.6055C64.0327 18.569 64.4571 18.6499 64.8506 18.8163ZM64.5699 21.3341C64.6789 21.2297 64.7656 21.1043 64.8248 20.9656C64.884 20.8268 64.9145 20.6775 64.9145 20.5266C64.9145 20.3757 64.884 20.2264 64.8248 20.0877C64.7656 19.9489 64.6789 19.8235 64.5699 19.7191C64.2763 19.5095 63.9186 19.409 63.5587 19.435H62.3677V21.6147H63.5587C63.9123 21.6387 64.2637 21.5423 64.5555 21.3413L64.5699 21.3341Z" fill="#333333"/>
<path d="M69.2596 23.7837C68.8194 23.5509 68.4521 23.2011 68.198 22.773C67.9492 22.3343 67.8184 21.8386 67.8184 21.3343C67.8184 20.83 67.9492 20.3343 68.198 19.8956C68.4521 19.4675 68.8194 19.1177 69.2596 18.8849C69.7281 18.6438 70.2475 18.5181 70.7745 18.5181C71.3015 18.5181 71.8209 18.6438 72.2894 18.8849C72.7282 19.1167 73.0944 19.4652 73.3474 19.892C73.5998 20.3341 73.7326 20.8343 73.7326 21.3433C73.7326 21.8523 73.5998 22.3525 73.3474 22.7946C73.0944 23.2214 72.7282 23.5699 72.2894 23.8017C71.8209 24.0428 71.3015 24.1685 70.7745 24.1685C70.2475 24.1685 69.7281 24.0428 69.2596 23.8017V23.7837ZM71.7605 23.0068C72.051 22.846 72.2904 22.6066 72.4514 22.3162C72.6167 22.0121 72.7033 21.6714 72.7033 21.3253C72.7033 20.9792 72.6167 20.6385 72.4514 20.3344C72.2903 20.0477 72.0506 19.8131 71.7605 19.6582C71.4567 19.4954 71.1174 19.4102 70.7727 19.4102C70.428 19.4102 70.0887 19.4954 69.7849 19.6582C69.4928 19.8169 69.2529 20.0568 69.094 20.3488C68.9287 20.6529 68.8421 20.9936 68.8421 21.3397C68.8421 21.6858 68.9287 22.0265 69.094 22.3306C69.255 22.621 69.4944 22.8604 69.7849 23.0212C70.0887 23.184 70.428 23.2692 70.7727 23.2692C71.1174 23.2692 71.4567 23.184 71.7605 23.0212V23.0068Z" fill="#333333"/>
<path d="M79.4963 18.8165C79.8273 18.955 80.1092 19.1892 80.306 19.4891C80.4921 19.8045 80.5902 20.1641 80.5902 20.5303C80.5902 20.8966 80.4921 21.2561 80.306 21.5716C80.1103 21.8742 79.8283 22.111 79.4963 22.2514C79.1019 22.4142 78.678 22.4938 78.2513 22.4852H77.0098V24.0714H76.0059V18.5791H78.2657C78.6879 18.5718 79.1071 18.6527 79.4963 18.8165ZM79.2157 21.3342C79.3246 21.2298 79.4113 21.1045 79.4706 20.9657C79.5298 20.8269 79.5603 20.6776 79.5603 20.5267C79.5603 20.3759 79.5298 20.2266 79.4706 20.0878C79.4113 19.949 79.3246 19.8237 79.2157 19.7193C78.9218 19.5101 78.5643 19.4097 78.2045 19.4351H77.0098V21.6148H78.2045C78.5629 21.6416 78.9197 21.5451 79.2157 21.3414V21.3342Z" fill="#333333"/>
<path d="M83.9236 23.7836C83.482 23.5528 83.1142 23.2026 82.8621 22.7729C82.6132 22.3342 82.4824 21.8385 82.4824 21.3342C82.4824 20.8299 82.6132 20.3342 82.8621 19.8955C83.1115 19.4592 83.4796 19.1025 83.9236 18.8668C84.3916 18.6258 84.9103 18.5 85.4368 18.5C85.9632 18.5 86.482 18.6258 86.9499 18.8668C87.3957 19.0967 87.7692 19.4452 88.0294 19.8739C88.2819 20.316 88.4146 20.8162 88.4146 21.3252C88.4146 21.8342 88.2819 22.3344 88.0294 22.7765C87.7692 23.2052 87.3957 23.5537 86.9499 23.7836C86.482 24.0246 85.9632 24.1504 85.4368 24.1504C84.9103 24.1504 84.3916 24.0246 83.9236 23.7836ZM86.4245 23.0067C86.7151 22.8459 86.9545 22.6065 87.1154 22.3161C87.2808 22.012 87.3674 21.6713 87.3674 21.3252C87.3674 20.9791 87.2808 20.6384 87.1154 20.3343C86.9566 20.0423 86.7167 19.8025 86.4245 19.6437C86.1208 19.4809 85.7814 19.3957 85.4368 19.3957C85.0921 19.3957 84.7528 19.4809 84.449 19.6437C84.1569 19.8025 83.9169 20.0423 83.7581 20.3343C83.5927 20.6384 83.5061 20.9791 83.5061 21.3252C83.5061 21.6713 83.5927 22.012 83.7581 22.3161C83.919 22.6065 84.1584 22.8459 84.449 23.0067C84.7528 23.1695 85.0921 23.2547 85.4368 23.2547C85.7814 23.2547 86.1208 23.1695 86.4245 23.0067Z" fill="#333333"/>
<path d="M95.5002 18.5791L93.1072 24.0714H92.1033L89.7031 18.5791H90.8078L92.6358 22.8162L94.4818 18.5791H95.5002Z" fill="#333333"/>
<path d="M98.2449 23.7836C97.8071 23.5518 97.4421 23.2032 97.1905 22.7765C96.9379 22.3395 96.8074 21.8426 96.8127 21.3378C96.8067 20.8325 96.9385 20.3351 97.1941 19.8991C97.448 19.473 97.8139 19.1247 98.2521 18.892C98.7135 18.6463 99.23 18.5225 99.7526 18.5323C100.176 18.5272 100.596 18.6079 100.987 18.7697C101.35 18.9198 101.672 19.154 101.926 19.4531L101.268 20.0717C101.084 19.8651 100.857 19.7006 100.604 19.5894C100.35 19.4783 100.076 19.4232 99.7994 19.4279C99.4466 19.4225 99.0984 19.5079 98.7882 19.6761C98.496 19.8339 98.2541 20.0707 98.0901 20.3595C97.9248 20.6655 97.8382 21.0079 97.8382 21.3558C97.8382 21.7036 97.9248 22.046 98.0901 22.3521C98.2548 22.6412 98.4964 22.879 98.7882 23.0391C99.0984 23.2072 99.4466 23.2927 99.7994 23.2873C100.077 23.2923 100.352 23.2366 100.606 23.1241C100.859 23.0117 101.085 22.8452 101.268 22.6363L101.926 23.2621C101.67 23.5604 101.347 23.7944 100.983 23.9455C100.591 24.1072 100.17 24.188 99.7454 24.1829C99.2193 24.1806 98.7026 24.0431 98.2449 23.7836Z" fill="#333333"/>
<path d="M108.205 23.2154V24.0714H104.074V18.5791H108.086V19.4351H105.096V20.8739H107.748V21.7119H105.096V23.2262L108.205 23.2154Z" fill="#333333"/>
<path d="M115.463 18.5791L113.07 24.0714H112.066L109.666 18.5791H110.771L112.599 22.8162L114.445 18.5791H115.463Z" fill="#333333"/>
<path d="M62.6933 36.248C62.1447 35.9445 61.6883 35.4983 61.3727 34.9567C61.0566 34.3918 60.8906 33.7553 60.8906 33.108C60.8906 32.4607 61.0566 31.8242 61.3727 31.2592C61.6873 30.7168 62.1439 30.2704 62.6933 29.9679C63.2711 29.6525 63.9206 29.4914 64.5789 29.5004C65.0639 29.4953 65.5457 29.5795 66.0003 29.7485C66.4196 29.9011 66.7986 30.1471 67.1086 30.4679L66.7848 30.8024C66.4963 30.5221 66.154 30.3031 65.7787 30.1585C65.4033 30.0138 65.0025 29.9466 64.6005 29.9607C64.0324 29.9538 63.4721 30.0938 62.974 30.3672C62.4947 30.6277 62.0973 31.0162 61.8261 31.4894C61.5526 31.9785 61.4089 32.5296 61.4089 33.09C61.4089 33.6504 61.5526 34.2014 61.8261 34.6906C62.0994 35.1621 62.4963 35.5502 62.974 35.8128C63.4721 36.0861 64.0324 36.2261 64.6005 36.2192C65.0036 36.2321 65.4052 36.1629 65.7807 36.0157C66.1562 35.8686 66.4978 35.6465 66.7848 35.3632L67.1086 35.7013C66.7983 36.0286 66.4183 36.2818 65.9967 36.4422C65.5438 36.6133 65.063 36.6987 64.5789 36.694C63.9225 36.7095 63.2731 36.556 62.6933 36.248Z" fill="#333333"/>
<path d="M72.8984 29.5652H73.4166V36.2085H77.5116V36.6761H72.8984V29.5652Z" fill="#333333"/>
<path d="M82.9082 29.5652H83.4264V36.6761H82.9082V29.5652Z" fill="#333333"/>
<path d="M95.7661 29.5652V36.6761H95.3379L90.4908 30.4932V36.6689H89.9727V29.5652H90.4009L95.2408 35.7409V29.5652H95.7661Z" fill="#333333"/>
<path d="M102.311 29.5652H102.829V36.6761H102.311V29.5652Z" fill="#333333"/>
<path d="M110.498 36.2481C109.948 35.9447 109.491 35.4986 109.173 34.9568C108.857 34.3919 108.691 33.7553 108.691 33.108C108.691 32.4607 108.857 31.8242 109.173 31.2593C109.489 30.7166 109.947 30.2702 110.498 29.968C111.074 29.653 111.723 29.492 112.38 29.5004C112.871 29.4932 113.359 29.5774 113.819 29.7486C114.238 29.9021 114.617 30.148 114.927 30.468L114.6 30.8025C114.312 30.5219 113.97 30.3026 113.594 30.158C113.219 30.0133 112.818 29.9462 112.416 29.9608C111.848 29.9544 111.287 30.0944 110.789 30.3673C110.311 30.6288 109.914 31.0171 109.641 31.4895C109.368 31.9786 109.224 32.5297 109.224 33.0901C109.224 33.6505 109.368 34.2015 109.641 34.6907C109.916 35.1614 110.312 35.5492 110.789 35.8129C111.287 36.0857 111.848 36.2257 112.416 36.2193C112.819 36.2324 113.22 36.1633 113.596 36.0161C113.972 35.8689 114.313 35.6468 114.6 35.3633L114.927 35.7014C114.616 36.0295 114.235 36.2828 113.812 36.4423C113.359 36.614 112.878 36.6994 112.394 36.6941C111.734 36.7118 111.081 36.5582 110.498 36.2481Z" fill="#333333"/>
<path d="M54.3409 16.657C54.3142 16.5906 54.2723 16.5315 54.2186 16.4843L54.179 16.4519L54.1394 16.4268C54.1133 16.4096 54.0856 16.3951 54.0566 16.3836L53.9811 16.3548L53.9055 16.3368H53.8299H53.758C53.5798 16.3169 53.4 16.3169 53.2218 16.3368L53.0922 16.3548H52.9663L52.7144 16.4016C52.0487 16.5347 51.4118 16.7397 50.7749 16.9339C49.5082 17.332 48.2523 17.766 47.0073 18.236C44.5172 19.1711 42.0774 20.2358 39.6737 21.3652C38.4718 21.9299 37.2807 22.5126 36.0932 23.0989L34.294 23.9765C33.6967 24.2642 33.0993 24.5484 32.4948 24.8038C32.3437 24.8685 32.1925 24.9296 32.0414 24.9872C31.893 25.0444 31.7417 25.0937 31.588 25.1347C31.5124 25.1527 31.4368 25.1706 31.3649 25.1814C31.2992 25.1899 31.2327 25.1899 31.167 25.1814C31.1467 25.1848 31.126 25.1848 31.1058 25.1814C31.1058 25.1814 31.1058 25.1814 31.0842 25.1814C31.081 25.1612 31.081 25.1405 31.0842 25.1203C31.0842 25.0915 31.1058 25.0591 31.1202 25.0196C31.1567 24.9319 31.1867 24.8418 31.2101 24.7498C31.2119 24.7211 31.2119 24.6922 31.2101 24.6635C31.2121 24.648 31.2121 24.6323 31.2101 24.6167C31.2157 24.5858 31.2157 24.5541 31.2101 24.5232C31.1982 24.4509 31.1581 24.3862 31.0986 24.3434C31.0593 24.3134 31.0138 24.2925 30.9655 24.2822C30.9189 24.2752 30.8716 24.2752 30.8251 24.2822C30.7701 24.2888 30.7158 24.3009 30.6632 24.3182C30.6164 24.3182 30.5732 24.347 30.53 24.3614C30.3645 24.4225 30.2098 24.4872 30.0586 24.5592L29.6052 24.7642C29.4577 24.8289 29.3066 24.8973 29.1554 24.9548C29.0116 25.0124 28.8636 25.0593 28.7128 25.0951C28.6483 25.1033 28.583 25.1033 28.5185 25.0951C28.5067 25.0983 28.4943 25.0983 28.4825 25.0951C28.4783 25.0762 28.4783 25.0565 28.4825 25.0376C28.4792 25.0077 28.4792 24.9775 28.4825 24.9476C28.4988 24.8773 28.5217 24.8086 28.5509 24.7426C28.6167 24.598 28.6913 24.4575 28.774 24.3218C28.8532 24.1851 28.9395 24.0448 29.0259 23.901C29.0709 23.8232 29.1082 23.7413 29.1374 23.6564C29.1374 23.6312 29.1374 23.606 29.1662 23.5665C29.174 23.5285 29.174 23.4893 29.1662 23.4514C29.2058 23.3435 28.9179 23.1852 28.8892 23.2499C28.8657 23.2547 28.8427 23.2619 28.8208 23.2715H28.7884L28.7308 23.2967C28.5689 23.365 28.4178 23.4406 28.2666 23.5197C27.6723 23.8329 27.0979 24.1825 26.5466 24.5664C26.2695 24.757 25.996 24.9584 25.7369 25.1634C25.4778 25.3685 25.2152 25.5699 24.9489 25.7605C24.6871 25.9514 24.4144 26.1267 24.132 26.2857C23.8649 26.442 23.5746 26.555 23.272 26.6202C23.1392 26.6492 23.0017 26.6492 22.869 26.6202C22.8384 26.611 22.8084 26.6002 22.779 26.5878L22.7394 26.5662L22.6998 26.541L22.6639 26.5158L22.6279 26.4835C22.6021 26.4613 22.5781 26.4373 22.5559 26.4115C22.3777 26.1785 22.2714 25.8984 22.25 25.6058C22.2186 25.2844 22.2089 24.9611 22.2213 24.6383C22.2213 24.3434 22.2213 24.0376 22.2213 23.7283L23.1101 22.6852C23.5383 22.1781 23.9629 21.6673 24.3875 21.1602L24.9597 20.4768L26.2515 19.11C26.9712 18.3571 27.6909 17.6077 28.4106 16.862L31.0158 15.9304C34.6143 14.6535 38.1947 13.3623 41.8111 12.1573C42.7132 11.86 43.6188 11.5699 44.528 11.2869L45.2081 11.0891L45.5679 10.9884L45.9278 10.8913C46.3848 10.7654 46.8418 10.6395 47.3024 10.5316C47.763 10.4237 48.2236 10.305 48.6842 10.2043C49.1448 10.1036 49.609 10.01 50.0732 9.9345C50.3071 9.89853 50.5374 9.86976 50.7677 9.84818C50.996 9.82509 51.2254 9.81428 51.455 9.8158C51.5635 9.81777 51.6717 9.82739 51.7788 9.84458L51.9263 9.88055C51.9663 9.89202 52.0049 9.90769 52.0415 9.92731C52.0627 9.94026 52.0811 9.9574 52.0955 9.97767C52.1021 9.99504 52.1021 10.0142 52.0955 10.0316C52.0909 10.0669 52.0799 10.101 52.0631 10.1323C52.0543 10.1526 52.0435 10.1719 52.0307 10.1899L52.0127 10.2151V10.2366C51.9828 10.2761 51.9689 10.3253 51.9735 10.3746C51.9782 10.4239 52.0012 10.4696 52.0379 10.5028C52.056 10.5217 52.0778 10.5368 52.1019 10.5471C52.1261 10.5574 52.152 10.5627 52.1782 10.5627C52.2045 10.5627 52.2304 10.5574 52.2545 10.5471C52.2787 10.5368 52.3004 10.5217 52.3186 10.5028L52.3402 10.4776L52.3582 10.456L52.3905 10.4093C52.4118 10.3794 52.4311 10.3482 52.4481 10.3158C52.4889 10.2422 52.5157 10.1617 52.5273 10.0784C52.5422 9.97721 52.5246 9.87392 52.4769 9.78343C52.4316 9.69996 52.3644 9.63035 52.2826 9.58201C52.1583 9.50538 52.0201 9.45404 51.876 9.43095C51.7487 9.40809 51.6201 9.39367 51.4909 9.38778C51.2437 9.37746 50.9961 9.38347 50.7497 9.40577C50.505 9.40577 50.2639 9.45253 50.03 9.4885C49.0793 9.63249 48.1365 9.82457 47.2052 10.064C46.741 10.1791 46.2804 10.2978 45.8162 10.4237L45.4564 10.5172L45.0965 10.6179L44.4092 10.8193C43.4952 11.0999 42.5848 11.39 41.678 11.6898C39.8788 12.2904 38.0796 12.9127 36.2803 13.5421C34.4811 14.1716 32.6819 14.8082 30.8827 15.452L29.249 16.0383C29.9003 15.3477 30.5408 14.6427 31.1778 13.9378C31.973 13.0601 32.7611 12.1789 33.5779 11.3229C33.9833 10.8961 34.3984 10.4776 34.823 10.0676C35.0353 9.86257 35.2512 9.66474 35.4671 9.45972L35.791 9.16478L35.9565 9.01372L36.122 8.86984C36.5646 8.48139 37.0144 8.10372 37.4786 7.74044C37.7089 7.5642 37.9428 7.38076 38.1803 7.2153L38.3602 7.08941L38.5402 6.96712L38.7201 6.84843L38.8964 6.74053C38.9271 6.72187 38.9539 6.69734 38.9751 6.66836C38.9963 6.63937 39.0116 6.60649 39.0202 6.57159C39.0287 6.53668 39.0303 6.50045 39.0248 6.46494C39.0193 6.42944 39.0068 6.39536 38.9882 6.36465C38.9695 6.33395 38.945 6.30723 38.916 6.286C38.887 6.26478 38.8541 6.24947 38.8192 6.24095C38.7842 6.23244 38.748 6.23088 38.7125 6.23636C38.6769 6.24185 38.6428 6.25428 38.6121 6.27294C38.5366 6.3161 38.4754 6.35566 38.4106 6.39882L38.2235 6.52831L38.04 6.6614L37.8565 6.79448C37.6154 6.97432 37.3815 7.15416 37.1368 7.34838C36.6738 7.72725 36.2228 8.11811 35.7838 8.52095L35.6182 8.67202L35.4527 8.82668L35.1288 9.13241C34.9129 9.33743 34.697 9.54245 34.4883 9.75466C34.0637 10.1719 33.6499 10.6035 33.2469 11.0423C32.4408 11.9163 31.6528 12.8048 30.8683 13.6896C30.0838 14.5744 29.2958 15.4592 28.4825 16.3117L28.4214 16.3332L30.7424 13.499L33.2613 10.4129L33.5743 10.0316L33.8982 9.65395C34.1141 9.40217 34.33 9.1468 34.5423 8.88782C34.7546 8.62885 34.9633 8.36989 35.1684 8.10012C35.3735 7.83036 35.5643 7.5534 35.755 7.27645V7.25127C35.7829 7.18763 35.7858 7.11582 35.7632 7.0501C35.7406 6.98438 35.6941 6.92956 35.633 6.8965C35.5718 6.86345 35.5005 6.85459 35.4331 6.87166C35.3657 6.88874 35.3072 6.93052 35.2692 6.9887C34.9567 7.56403 34.5956 8.11155 34.1897 8.62526C33.9917 8.88783 33.783 9.1432 33.5707 9.39498L33.2505 9.77624L32.9302 10.1611L30.4113 13.2436C29.4853 14.3682 28.5581 15.4916 27.6297 16.6138C25.1156 17.5178 22.5967 18.417 20.073 19.3114L18.7272 19.7898C18.281 19.9517 17.8312 20.1099 17.3814 20.261C16.4817 20.5703 15.5821 20.8688 14.6717 21.1494C14.2183 21.2861 13.7649 21.4191 13.3079 21.545C12.8509 21.6709 12.3903 21.786 11.9333 21.8867C11.4765 21.989 11.0138 22.0635 10.5479 22.1097C10.4364 22.1097 10.3212 22.1097 10.2097 22.1097C10.1013 22.1119 9.99294 22.1047 9.88581 22.0882C9.83912 22.0809 9.79329 22.0688 9.74907 22.0522C9.71622 22.0429 9.68562 22.027 9.65911 22.0054C9.68821 21.9573 9.69699 21.8995 9.68349 21.8449C9.66999 21.7902 9.63533 21.7432 9.58714 21.7141C9.56307 21.6989 9.53623 21.6886 9.50816 21.6838C9.48009 21.679 9.45134 21.6798 9.42358 21.6861C9.39582 21.6925 9.36959 21.7043 9.3464 21.7208C9.32321 21.7373 9.30352 21.7583 9.28847 21.7824C9.28847 21.7824 9.28847 21.8004 9.28847 21.8076V21.8436C9.2775 21.8663 9.27021 21.8905 9.26688 21.9155C9.25775 21.9691 9.25775 22.0238 9.26688 22.0774C9.27574 22.1345 9.29528 22.1894 9.32446 22.2392C9.35237 22.2843 9.38764 22.3245 9.42881 22.3579C9.49464 22.4106 9.56883 22.452 9.64831 22.4802C9.71619 22.5034 9.78606 22.5202 9.85703 22.5306C9.98526 22.5535 10.1154 22.5644 10.2457 22.5629C10.3716 22.5629 10.4975 22.5629 10.6055 22.5629C10.8538 22.5629 11.0949 22.5126 11.3252 22.4766C11.5555 22.4407 11.8038 22.3939 12.0449 22.3471C12.5163 22.25 12.9841 22.1349 13.4483 22.0162C13.9125 21.8975 14.3731 21.7644 14.8337 21.6278C16.6689 21.0918 18.4717 20.4588 20.2673 19.8294C22.5127 19.0357 24.7582 18.2372 27.0036 17.4339C26.4518 18.0933 25.9001 18.7503 25.3483 19.4049C24.9237 19.9157 24.4919 20.4192 24.0637 20.9228C23.9161 21.099 23.765 21.2825 23.6174 21.4551C23.6001 21.4689 23.5844 21.4845 23.5707 21.5019L22.9481 22.1349C22.7394 22.3435 22.5343 22.5557 22.322 22.7644L22.1241 22.9586C22.0872 22.8444 22.0402 22.7336 21.9838 22.6277C21.8974 22.4634 21.7884 22.3121 21.6599 22.1781C21.5305 22.0455 21.3841 21.9306 21.2245 21.8364C20.9137 21.6581 20.5738 21.5363 20.2205 21.4767C19.8786 21.4159 19.5313 21.3906 19.1842 21.4012C18.8411 21.411 18.4993 21.4483 18.1622 21.5127C17.9931 21.5414 17.824 21.581 17.6584 21.6242L17.4101 21.6997L17.1726 21.7824L16.6941 21.9479L16.4602 22.0378L16.2263 22.1313L15.9924 22.2248C15.9132 22.2536 15.8376 22.286 15.7621 22.322L15.3015 22.5234L15.0712 22.6277L14.8445 22.7392L14.3947 22.9622C14.2435 23.0377 14.0996 23.1204 13.952 23.1996L13.7289 23.3183L13.6174 23.3758L13.5094 23.4406C12.3488 24.1112 11.243 24.8725 10.2025 25.7173C9.16694 26.5595 8.17715 27.4564 7.23736 28.4042L6.87752 28.7639L6.7048 28.9401C6.64362 29.0013 6.58605 29.066 6.52847 29.1271C6.29817 29.3753 6.08227 29.6307 5.86636 29.8861C5.43815 30.4004 5.02792 30.9256 4.6285 31.4579C4.22907 31.9902 3.84044 32.5369 3.4662 33.0872C3.09197 33.6376 2.74652 34.2023 2.38667 34.7742C2.02683 35.346 1.71736 35.9287 1.41509 36.5294C1.11165 37.1267 0.84136 37.7403 0.605444 38.3674C0.361673 38.9995 0.184394 39.6552 0.0764734 40.324C0.0259274 40.6632 0.00785287 41.0065 0.0224963 41.3491V41.4139V41.4786V41.6081C0.0224963 41.6513 0.0224974 41.6944 0.0404896 41.7376C0.0584818 41.7808 0.0404887 41.8239 0.0620794 41.8671L0.0872683 41.9966V42.0613L0.105262 42.1261L0.144845 42.2519C0.144845 42.2951 0.173633 42.3347 0.188027 42.3778C0.202421 42.421 0.256395 42.5397 0.292379 42.6224V42.6512V42.68L0.324766 42.7411C0.346357 42.7771 0.364349 42.8202 0.389538 42.8562C0.437472 42.9339 0.49036 43.0084 0.547871 43.0792L0.594649 43.1332L0.645027 43.1835L0.695405 43.2339L0.749382 43.2806C0.902394 43.4016 1.08075 43.4864 1.27115 43.5288C1.45229 43.5654 1.63799 43.5739 1.82171 43.554C2.1704 43.5085 2.51014 43.4102 2.82928 43.2626C3.14124 43.126 3.44307 42.9674 3.73249 42.7879C4.30298 42.4332 4.85209 42.0453 5.37697 41.6261C5.90234 41.2089 6.40972 40.7772 6.90631 40.3312C7.89948 39.4428 8.84946 38.5077 9.78506 37.5617L10.4796 36.8423L10.8394 36.4826L11.1992 36.123L12.581 34.6842C13.4807 33.7131 14.3803 32.7455 15.2763 31.7528C16.1723 30.7601 17.0467 29.7746 17.9211 28.7818L19.2274 27.2784L19.8787 26.5266L20.5264 25.7713L21.8182 24.257L21.847 24.2247V24.6635C21.8347 25.0043 21.8455 25.3456 21.8794 25.685C21.9024 25.864 21.9447 26.0401 22.0053 26.2101C22.0687 26.3906 22.1651 26.5577 22.2896 26.7029C22.3213 26.7394 22.355 26.7742 22.3904 26.8072L22.448 26.8575L22.5127 26.9007L22.5775 26.9439L22.6495 26.9798C22.6962 27.001 22.7443 27.019 22.7934 27.0338C22.8431 27.0468 22.8936 27.0565 22.9445 27.0626C22.9936 27.0663 23.043 27.0663 23.0921 27.0626C23.1873 27.0645 23.2825 27.0572 23.3764 27.041C23.5532 27.0091 23.7258 26.9572 23.8909 26.8863C24.0528 26.821 24.2102 26.7453 24.3623 26.6597C24.6573 26.4927 24.9431 26.3102 25.2188 26.113C25.4922 25.9188 25.7549 25.7138 26.0176 25.5123C26.2803 25.3109 26.543 25.1167 26.8129 24.9332C27.3536 24.5654 27.916 24.2303 28.4969 23.9297H28.5257C28.4861 24.0053 28.4501 24.0772 28.4142 24.1527C28.3458 24.3074 28.2774 24.4693 28.2198 24.6383C28.189 24.726 28.1662 24.8163 28.1515 24.9081C28.1458 24.9607 28.1458 25.0137 28.1515 25.0663C28.1479 25.13 28.1577 25.1937 28.1803 25.2534C28.209 25.3264 28.2576 25.3899 28.3206 25.4368C28.3809 25.4743 28.4483 25.4988 28.5185 25.5087C28.6188 25.5218 28.7205 25.5218 28.8208 25.5087C28.9935 25.4758 29.1642 25.4325 29.3318 25.3793C29.4937 25.3289 29.652 25.2749 29.8104 25.2174L30.2817 25.0483C30.4113 24.998 30.5372 24.9512 30.6632 24.9117C30.6632 24.944 30.638 24.9836 30.6236 25.0268C30.6054 25.0864 30.5945 25.148 30.5912 25.2102C30.5878 25.2485 30.5878 25.287 30.5912 25.3253C30.5994 25.3698 30.6127 25.4133 30.6308 25.4548C30.67 25.5254 30.724 25.5868 30.7891 25.6346L30.8755 25.685L30.9223 25.7066H30.9762C31.0372 25.7231 31.1002 25.7316 31.1634 25.7317C31.2627 25.7297 31.3615 25.7177 31.4584 25.6958C31.5484 25.6778 31.6348 25.6526 31.7211 25.6274C32.0451 25.5244 32.3634 25.4043 32.6747 25.2677C33.2936 25.0052 33.891 24.7138 34.4739 24.4225L36.2731 23.5413C37.4606 22.9514 38.6481 22.3651 39.8428 21.7968C42.2358 20.6602 44.6611 19.5992 47.1368 18.6676C48.3747 18.188 49.6245 17.7552 50.8864 17.3691C51.5197 17.1749 52.1495 16.9771 52.7828 16.8476C52.8619 16.8296 52.9411 16.8188 53.0203 16.8044L53.139 16.7864H53.2578C53.4085 16.7705 53.5605 16.7705 53.7112 16.7864H53.7652H53.8119H53.8551H53.8947H53.9271C53.9271 16.7864 53.9271 16.7864 53.9487 16.8116C53.951 16.8247 53.951 16.8381 53.9487 16.8512C53.9532 16.8762 53.9532 16.9017 53.9487 16.9267C53.9411 16.9578 53.9302 16.9879 53.9163 17.0166C53.9163 17.0526 53.8875 17.0814 53.8659 17.1245C53.843 17.1722 53.84 17.2271 53.8575 17.277C53.8751 17.3269 53.9118 17.3678 53.9595 17.3907C54.0072 17.4136 54.062 17.4166 54.112 17.3991C54.1619 17.3815 54.2028 17.3449 54.2257 17.2972L54.2833 17.1821C54.3028 17.1364 54.3197 17.0895 54.3337 17.0418C54.3494 16.9855 54.3591 16.9276 54.3625 16.8692C54.37 16.7977 54.3627 16.7255 54.3409 16.657ZM20.1557 25.39L19.5116 26.1418L18.8531 26.8863L17.5397 28.379L16.2191 29.8609C15.7801 30.3573 15.3302 30.8428 14.884 31.332C13.9988 32.3175 13.0848 33.2815 12.1924 34.2526L10.8178 35.6913L9.43601 37.1085C8.97901 37.5833 8.5184 38.058 8.05061 38.5256C7.58281 38.9932 7.11502 39.4572 6.63283 39.9104C6.15064 40.3636 5.66485 40.8024 5.15747 41.2232C4.65686 41.6446 4.12915 42.0327 3.57775 42.385C3.30541 42.5586 3.02169 42.7136 2.72852 42.849C2.44641 42.9828 2.14544 43.0726 1.83611 43.1152C1.69193 43.1387 1.54488 43.1387 1.4007 43.1152C1.26927 43.0835 1.14641 43.0234 1.04085 42.9389C1.014 42.9181 0.988741 42.8952 0.965288 42.8706L0.929304 42.831C0.915475 42.8196 0.903357 42.8063 0.89332 42.7915C0.850139 42.7375 0.806958 42.6692 0.767375 42.608C0.727793 42.5469 0.727791 42.5397 0.709799 42.5073L0.681011 42.457V42.4318V42.4066C0.64734 42.3363 0.617314 42.2642 0.59105 42.1908C0.59105 42.1548 0.565861 42.1189 0.551467 42.0829L0.522682 41.9714V41.9138V41.8563L0.497493 41.7448C0.497493 41.7052 0.497493 41.6657 0.497493 41.6261C0.495517 41.5877 0.495517 41.5493 0.497493 41.511V41.3923V41.3348V41.2736C0.485581 40.9546 0.506077 40.6353 0.558665 40.3204C0.664465 39.6796 0.840654 39.0523 1.08404 38.4501C1.322 37.8356 1.59472 37.2352 1.90088 36.6517C2.20675 36.0726 2.53781 35.5007 2.88326 34.9432C3.57775 33.8246 4.32263 32.7455 5.13947 31.7061C5.5389 31.1809 5.95272 30.6702 6.37734 30.1666C6.58964 29.9148 6.80195 29.6667 7.02506 29.4257L7.19058 29.253L7.36331 29.0768L7.72315 28.7171C8.60994 27.7883 9.54186 26.9036 10.5155 26.0662C10.5767 26.0123 10.6415 25.9619 10.7063 25.9116L10.9006 25.7605L11.0949 25.6094L11.2892 25.4584L11.685 25.167L11.8829 25.0196L12.0881 24.8793L12.4911 24.5987L12.9049 24.3326C13.1748 24.1491 13.4591 23.9729 13.7397 23.8146L13.8477 23.7535L13.9556 23.6923L14.168 23.5736L14.5998 23.3399L15.0388 23.1204L15.2583 23.0089L15.4814 22.9082L15.9132 22.7212C15.9852 22.6852 16.0643 22.6565 16.1399 22.6241L16.3666 22.5342L16.5933 22.4406C16.6689 22.4119 16.7444 22.3759 16.8236 22.3507L17.2842 22.1853L17.5145 22.1025C17.5937 22.0738 17.6656 22.0522 17.7412 22.0306C17.8959 21.9874 18.0507 21.9515 18.209 21.9191C18.5223 21.8579 18.84 21.8219 19.159 21.8112C19.4744 21.7959 19.7906 21.8152 20.1018 21.8688C20.4051 21.9163 20.6975 22.0174 20.9654 22.1673C21.2212 22.3125 21.4307 22.5269 21.5699 22.7859C21.646 22.9318 21.704 23.0864 21.7427 23.2463C21.498 23.4837 21.2533 23.7139 21.005 23.9441L20.6775 24.2391L20.3429 24.5268L20.0046 24.8038C19.8895 24.8937 19.7743 24.9836 19.6448 25.0699C19.4139 25.2437 19.1737 25.4046 18.9251 25.5519C18.7991 25.6238 18.6768 25.6958 18.5473 25.7569L18.3565 25.8396C18.3261 25.8526 18.2949 25.8634 18.263 25.872H18.2198H18.1982C18.1725 25.8759 18.1479 25.885 18.1258 25.8985C18.1036 25.9121 18.0845 25.93 18.0694 25.9511C18.0543 25.9723 18.0436 25.9962 18.0379 26.0215C18.0322 26.0469 18.0316 26.0731 18.0363 26.0986C18.0451 26.15 18.0738 26.1959 18.1163 26.2262C18.1588 26.2565 18.2115 26.2688 18.263 26.2605H18.3062H18.3385L18.3997 26.2425L18.5149 26.1993L18.7308 26.1058C18.8711 26.0375 19.0043 25.9619 19.1374 25.8864C19.4001 25.7281 19.6484 25.5591 19.8895 25.3793C20.0118 25.2893 20.1306 25.1958 20.2493 25.1023L20.422 24.962C20.4832 24.9153 20.5408 24.8685 20.5948 24.8181L20.8035 24.6383L20.1557 25.39ZM29.0079 23.6528C29.0046 23.6547 29.0009 23.6557 28.9971 23.6557C28.9933 23.6557 28.9896 23.6547 28.9863 23.6528H29.0079ZM31.0842 25.1598C31.0842 25.1598 31.0842 25.1562 31.0878 25.1598H31.0842Z" fill="#333333"/>
<path d="M128 36.5H120V35.5H127V1.5H25V11.3444H24V0.5H128V36.5Z" fill="#333333"/>
<path d="M54 35.5L24 35.5V36.5L54 36.5V35.5Z" fill="#333333"/>
</g>
<defs>
<clipPath id="clip0_206_8792">
<rect width="128" height="43" fill="white" transform="translate(0 0.5)"/>
</clipPath>
</defs>
</svg>
